<?xml version="1.0" encoding="utf-8"?><svg viewBox="-0.044 0.514 320 322" xmlns="http://www.w3.org/2000/svg"><path d="M 159.956 1.514 C 145.956 36.514 136.956 58.514 120.956 92.514 C 130.956 103.514 142.956 115.514 161.956 128.514 C 140.956 120.514 126.956 111.514 116.956 102.514 C 95.956 145.514 63.956 205.514 -0.044 322.514 C 49.956 292.514 89.956 274.514 126.956 267.514 C 124.956 260.514 123.956 253.514 123.956 245.514 L 123.956 244.514 C 124.956 211.514 141.956 186.514 161.956 188.514 C 181.956 189.514 197.956 217.514 196.956 250.514 L 194.956 267.514 C 230.956 274.514 269.956 293.514 319.956 321.514 L 292.956 271.514 C 279.956 261.514 265.956 248.514 237.956 233.514 C 256.956 238.514 270.956 244.514 281.956 250.514 C 195.956 91.514 188.956 70.514 159.956 0.514 L 159.956 1.514 Z" fill="#000000" transform="matrix(1, 0, 0, 1, 0, -7.105427357601002e-15)"/></svg>