<svg xmlns="http://www.w3.org/2000/svg" width="600" height="50" viewbox="0 0 600 50"><g transform="translate(0, 0)"><g text-anchor="middle"><g ><g transform="translate(18.75, 14)"><text x="562.5" font-size="14" font-family="sans-serif" font-weight="normal">0</text><text x="112.5" font-size="14" font-family="sans-serif" font-weight="normal">12</text><text x="75.0" font-size="14" font-family="sans-serif" font-weight="normal">13</text><text x="0.0" font-size="14" font-family="sans-serif" font-weight="normal">15</text></g><g transform="translate(0, 16.8)"><g transform="translate(0, 0)"/><g transform="translate(18.75, 23.6)"><g transform="translate(337.5, -6)"><text font-size="14" font-family="sans-serif" font-weight="normal" text-anchor="middle" y="6"><tspan >unit index (1 - 8191)</tspan></text></g><g transform="translate(37.5, -6)"><text font-size="14" font-family="sans-serif" font-weight="normal" text-anchor="middle" y="6"><tspan >team index (0 - 4)</tspan></text></g></g><g transform="translate(18.75, 47.2)"/></g></g></g><g stroke="black" stroke-width="1" stroke-linecap="round" transform="translate(0, 16.8)"><line x1="0.25" x2="599.5"/><line y2="33.2"/><line x1="0.25" x2="599.5" y1="33.2" y2="33.2"/><line x1="599.5" x2="599.5" y2="33.2"/><line x1="562.03125" x2="562.03125" y2="4.15"/><line x1="562.03125" x2="562.03125" y1="29.050000000000004" y2="33.2"/><line x1="524.5625" x2="524.5625" y2="4.15"/><line x1="524.5625" x2="524.5625" y1="29.050000000000004" y2="33.2"/><line x1="487.09375" x2="487.09375" y2="4.15"/><line x1="487.09375" x2="487.09375" y1="29.050000000000004" y2="33.2"/><line x1="449.625" x2="449.625" y2="4.15"/><line x1="449.625" x2="449.625" y1="29.050000000000004" y2="33.2"/><line x1="412.15625" x2="412.15625" y2="4.15"/><line x1="412.15625" x2="412.15625" y1="29.050000000000004" y2="33.2"/><line x1="374.6875" x2="374.6875" y2="4.15"/><line x1="374.6875" x2="374.6875" y1="29.050000000000004" y2="33.2"/><line x1="337.21875" x2="337.21875" y2="4.15"/><line x1="337.21875" x2="337.21875" y1="29.050000000000004" y2="33.2"/><line x1="299.75" x2="299.75" y2="4.15"/><line x1="299.75" x2="299.75" y1="29.050000000000004" y2="33.2"/><line x1="262.28125" x2="262.28125" y2="4.15"/><line x1="262.28125" x2="262.28125" y1="29.050000000000004" y2="33.2"/><line x1="224.8125" x2="224.8125" y2="4.15"/><line x1="224.8125" x2="224.8125" y1="29.050000000000004" y2="33.2"/><line x1="187.34375" x2="187.34375" y2="4.15"/><line x1="187.34375" x2="187.34375" y1="29.050000000000004" y2="33.2"/><line x1="149.875" x2="149.875" y2="4.15"/><line x1="149.875" x2="149.875" y1="29.050000000000004" y2="33.2"/><line x1="112.40625" x2="112.40625" y2="33.2"/><line x1="74.9375" x2="74.9375" y2="4.15"/><line x1="74.9375" x2="74.9375" y1="29.050000000000004" y2="33.2"/><line x1="37.46875" x2="37.46875" y2="4.15"/><line x1="37.46875" x2="37.46875" y1="29.050000000000004" y2="33.2"/></g></g></svg>
