<svg xmlns="http://www.w3.org/2000/svg" data-v-3acb27dc="" class="sketchy-canvas visible" width="1200" height="484" stroke-linecap="round" xmlns:xlink="http://www.w3.org/1999/xlink"><defs><clipPath id="ygc95_0_0"><rect x="25" y="25" width="1149.2" height="433.2" transform="matrix(1, 0, 0, 1, 0, 0)"/></clipPath></defs><g><path d="M174.4383748232953 385.6169511958337 L302.3394694918426 384.36195184445376 L301.6221111414747 435.0971419773511 L175.28108578546025 434.3813048191752 L174.41456806328864 384.31771158568995" stroke="none" stroke-width="0" fill="rgba(255, 255, 255, 0)"/><path d="M175.66757697583606 384.44485477603325 M175.4296819939615 384.538986015363 C222.28836166527407 384.87808559561563, 269.9978748039053 385.5116463246847, 302.38103003268753 384.2694707836369 M301.92589894263756 384.9611094330171 C301.66201654730366 400.850088465971, 302.9116431035512 417.3371033659676, 303.03107696461984 435.5958469248942 M302.9972327172219 435.43882454589425 C268.029905621639 436.15003182237956, 233.85816913788858 435.9044096238024, 174.46578046802634 435.8964830746346 M174.33259800785567 434.8043320769576 C174.69321085329867 423.25939596687675, 174.76506558292675 411.8322991485176, 174.1140469015984 384.11968322316613" stroke="rgb(0, 0, 0)" stroke-width="1.399999976158142" fill="none"/></g><g class="text-container" transform="matrix(1.4, 0, 0, 1.4, 238.5, 400.2)"><text font-family="'Arial'" font-size="12px" font-style="normal" font-weight="normal" text-decoration="none" text-anchor="middle" fill="rgb(0,0,0)" fill-opacity="1" dy="0.9166666666666666em" transform="" style="font-style: normal;font-weight: 400;font-size: 12px;font-family: Comic Sans MS, cursive;" stroke="none" stroke-width="1px">Physical</text></g><g><path d="M174.59245914013158 335.39342408573634 L301.41790523444786 335.3033502722834 L301.48898354367225 384.20578727346003 L175.67394291397298 384.5349228928096 L174.29897480804846 335.2429312210984" stroke="none" stroke-width="0" fill="rgba(255, 255, 255, 0)"/><path d="M175.13007103221796 335.18716197838546 M175.5272008750805 335.35736095917196 C211.69095416260663 335.405140650514, 248.70627439639097 334.24049893729995, 302.49940684484255 334.0533984346457 M174.80423595584688 333.9797586276061 C221.2083060522836 334.17144506856647, 267.3613435433815 334.6941482275757, 302.5861862726668 333.99047143440333 M303.1812546206254 335.1014210572414 C302.8158975342152 345.16018155749447, 302.1320785627318 355.61248742225115, 302.5030087122559 385.534822148891 M301.75901990569434 334.124540891433 C301.94213150494824 354.7110315243077, 302.1696415684272 374.7448277566357, 302.57481361281623 384.6366185187101 M302.16639754605234 385.2309900321517 C272.6554502035353 385.01669028481126, 244.45633070331638 385.7317370699626, 174.84653882010355 384.34005070384165 M302.5611641206445 384.37310703660626 C255.71159061927327 384.67240687749273, 209.48060434476616 385.4318965064322, 175.1032188585224 384.3905109325256 M174.15397470668034 383.84612518033634 C174.42230779171075 372.9403243258869, 175.3310366551314 362.2540134996937, 175.38134829939835 335.119135263798 M175.00360931059473 385.24915952117146 C174.8818464385011 368.5485778218393, 174.62054853665538 351.4963873561332, 174.60335688351134 334.46772957351845" stroke="rgb(0, 0, 0)" stroke-width="1.399999976158142" fill="none"/></g><g class="text-container" transform="matrix(1.4, 0, 0, 1.4, 238.5, 349.8)"><text font-family="'Arial'" font-size="12px" font-style="normal" font-weight="normal" text-decoration="none" text-anchor="middle" fill="rgb(0,0,0)" fill-opacity="1" dy="0.9166666666666666em" transform="" style="font-style: normal;font-weight: 400;font-size: 12px;font-family: Comic Sans MS, cursive;" stroke="none" stroke-width="1px">Data Link</text></g><g><path d="M173.9432450671723 233.41954753325314 L302.7618532487205 233.15734090619839 L301.4419685132227 333.9016474217879 L174.93725188734473 334.2610778590879 L175.323856452593 233.845343811349" stroke="none" stroke-width="0" fill="rgba(255, 255, 255, 0)"/><path d="M175.70569575724633 234.09796529637103 M174.8691005933408 232.77404811300335 C200.41762138759842 232.90381087811792, 226.99700771402837 233.32112274466596, 302.4956628703803 234.13188079938985 M174.6339943351878 233.66083955284677 C204.01521043411947 233.42661331445845, 231.89019272906663 233.4410945678155, 302.2335497596063 233.52372746288114 M303.1650454568523 233.90382783176307 C302.4333312970283 259.04744731606456, 301.46739043620704 285.1273747042947, 301.6794562460054 335.0461304861237 M301.9787550678562 233.85466327318085 C302.4043873085723 265.8916596590665, 302.35217080927293 298.769972635113, 302.0937950948654 334.84201727081256 M302.1433956608848 333.8421151891881 C256.451567916721 335.70667290222906, 213.26203529208408 334.4255587771085, 174.27934464678117 334.08538927150727 M302.24062927933574 334.3226245909818 C270.9733300330284 334.24081633733294, 239.25564191121757 334.0416823904856, 174.61887697788936 334.28839694301024 M175.4768090395095 334.414871353173 C175.8532685453885 296.147596808784, 174.48754499038677 257.0144903743295, 175.79287953656416 232.8741154466251 M174.62524119808964 334.3434277074346 C174.86959405931725 300.62823491571896, 174.55777294142968 266.0047281402369, 174.70949026095752 233.8771086456998" stroke="rgb(0, 0, 0)" stroke-width="1.399999976158142" fill="none"/></g><g class="text-container" transform="matrix(1.4, 0, 0, 1.4, 238.5, 274.2)"><text font-family="'Arial'" font-size="12px" font-style="normal" font-weight="normal" text-decoration="none" text-anchor="middle" fill="rgb(0,0,0)" fill-opacity="1" dy="0.9166666666666666em" transform="" style="font-style: normal;font-weight: 400;font-size: 12px;font-family: Comic Sans MS, cursive;" stroke="none" stroke-width="1px">Network</text></g><g><path d="M175.1927841457196 182.77635506251337 L302.5199188057742 182.78319712606879 L302.0330745274083 234.02914356722977 L174.6268686140561 232.83302851731622 L174.64087802782345 183.98142681870203" stroke="none" stroke-width="0" fill="rgba(255, 255, 255, 0)"/><path d="M174.66307027391912 183.16224208279905 M174.50602498390592 183.9850569015899 C226.03193389097106 183.67725180928431, 275.7980910676565 182.6785889124659, 301.3380664123816 184.1598642163012 M174.92332508627803 183.4605872222555 C208.85146604191723 183.12941671699818, 242.9506259644966 182.6559271240396, 302.34150094664346 183.31645294283706 M301.58957261545737 182.41923012383586 C301.97190797739194 192.75795434431404, 302.02499890842375 204.11687468804996, 302.4200026588397 232.6338722575208 M302.23038404786826 183.38046240447457 C302.00105177509397 196.00019063641113, 302.28602088516175 208.28500087286594, 302.1895916017064 233.94796419569022 M301.78190140887205 234.18580508707478 C271.7596214495819 233.9551798230434, 239.85400544925164 234.7825016119279, 174.54240423126384 232.68136223149764 M302.0993128358908 233.12402150587926 C260.2102983901685 234.61834278600955, 217.99051805975176 234.02822381745435, 174.90100195123242 233.52777037186735 M174.43874246095604 233.25925125452403 C174.00669925162072 221.99480924495563, 175.51922079081618 209.95715578476148, 174.4596042169125 182.87335254523677 M175.16246008825604 233.29760228952847 C175.21402824568798 219.00329228792128, 175.23270180153438 204.1544773831567, 174.3209540320666 183.39990017771356" stroke="rgb(0, 0, 0)" stroke-width="1.399999976158142" fill="none"/></g><g class="text-container" transform="matrix(1.4, 0, 0, 1.4, 238.5, 198.6)"><text font-family="'Arial'" font-size="12px" font-style="normal" font-weight="normal" text-decoration="none" text-anchor="middle" fill="rgb(0,0,0)" fill-opacity="1" dy="0.9166666666666666em" transform="" style="font-style: normal;font-weight: 400;font-size: 12px;font-family: Comic Sans MS, cursive;" stroke="none" stroke-width="1px">Transport</text></g><g><path d="M174.50114160669742 131.97319542986153 L302.66798517986706 132.57687659551766 L303.1994342600436 182.3059195299907 L175.2689431559002 183.97459268244367 L174.3357529056957 132.02304410593337" stroke="none" stroke-width="0" fill="rgba(255, 255, 255, 0)"/><path d="M174.4806626547311 133.4354383756688 M173.99911284790048 131.8110265276061 C210.4295851140086 133.56464397042285, 246.8930690938141 134.2836521300163, 302.56055539149935 132.5295911116185 M174.55297143669839 133.2375874628999 C201.1827048786525 132.3192499643135, 227.30379670103358 132.23492364049062, 302.4993455850891 132.80597541456612 M301.6296700404047 133.21898886944675 C302.3536147314333 150.48754106016256, 301.4750532212354 170.3872633992735, 301.7375365299406 182.47352365715201 M302.18788432785874 133.1844973186601 C301.9218627796328 148.08165625485884, 301.8606724546458 163.70216662124494, 302.1387467269629 183.29820524544738 M302.86699418831 183.90887115572113 C261.7837436633369 182.6765883396247, 222.78718699870728 182.22447405580078, 174.79892463860563 183.94395207815901 M302.35768946871144 183.07838977314367 C275.37004694618327 183.9500335180294, 248.02335149012018 183.96236679157792, 174.43493943174636 183.58590935682957 M173.856443401764 183.57177160297942 C174.76214735051033 166.38139209456972, 175.48462708460795 150.0262149476868, 174.17513132291333 133.0701025153164 M175.21558435301156 183.52812390741133 C174.81174824610406 171.70085026157514, 175.12774435616876 159.730784779057, 175.03206503493425 133.0667153072044" stroke="rgb(0, 0, 0)" stroke-width="1.399999976158142" fill="none"/></g><g class="text-container" transform="matrix(1.4, 0, 0, 1.4, 238.5, 148.2)"><text font-family="'Arial'" font-size="12px" font-style="normal" font-weight="normal" text-decoration="none" text-anchor="middle" fill="rgb(0,0,0)" fill-opacity="1" dy="0.9166666666666666em" transform="" style="font-style: normal;font-weight: 400;font-size: 12px;font-family: Comic Sans MS, cursive;" stroke="none" stroke-width="1px">Session</text></g><g><path d="M175.21581305033183 82.23095593926281 L303.16695428409525 82.83305940157864 L302.2687091453041 133.20202302421293 L174.9327406391394 132.07667922810114 L173.8089056863739 81.61659028733051" stroke="none" stroke-width="0" fill="rgba(255, 255, 255, 0)"/><path d="M174.356079653019 82.89912269688337 M175.3822516096577 83.34807313576253 C211.68194901006012 82.47893013977142, 247.62649436969517 81.6353221575566, 303.1611426666172 81.46350449612608 M301.2309706917045 82.81091366130713 C301.19442145505747 96.99262279546423, 302.88353038205673 113.17213802682251, 302.3617278381046 132.00562960436764 M303.0660858090681 132.8896659314654 C256.50628901993923 133.99192586629877, 212.20484898219715 133.18699794594474, 175.1240748675883 133.0232055372548 M174.39749742829477 133.65442806149434 C175.01224370408175 118.91967222344455, 175.57813460748915 103.79927488262342, 174.99854821970501 83.20792345023516" stroke="rgb(0, 0, 0)" stroke-width="1.399999976158142" fill="none"/></g><g class="text-container" transform="matrix(1.4, 0, 0, 1.4, 238.5, 97.8)"><text font-family="'Arial'" font-size="12px" font-style="normal" font-weight="normal" text-decoration="none" text-anchor="middle" fill="rgb(0,0,0)" fill-opacity="1" dy="0.9166666666666666em" transform="" style="font-style: normal;font-weight: 400;font-size: 12px;font-family: Comic Sans MS, cursive;" stroke="none" stroke-width="1px">Presentation</text></g><g><path d="M175.20628142513462 31.052888396085415 L302.34599832147626 31.5853977010573 L301.30668441780114 82.25913954920922 L174.39816658972617 82.76102031666471 L175.62896579728746 32.7610202866998" stroke="none" stroke-width="0" fill="rgba(255, 255, 255, 0)"/><path d="M174.7555074517019 31.855878191179404 M175.38050546112856 32.233772785680635 C215.61501169277815 31.903847812281057, 256.88232818030485 31.145279229202274, 302.4843122876833 32.87255635288429 M302.62853595208685 32.26328882243369 C302.2652845813599 44.75086980429301, 301.77426473352824 56.87263522432765, 302.10028278168284 82.34663911885679 M302.4331239823 81.9803786474651 C257.4547211829112 82.73881473006064, 214.67107103194698 83.08579562063976, 174.92923509149276 82.7545547755578 M175.71647068935508 82.49196976427234 C175.9365754684625 69.00253529124222, 175.90658563838056 54.24241257348579, 174.10527364668621 31.318423905052004" stroke="rgb(0, 0, 0)" stroke-width="1.399999976158142" fill="none"/></g><g class="text-container" transform="matrix(1.4, 0, 0, 1.4, 238.5, 47.4)"><text font-family="'Arial'" font-size="12px" font-style="normal" font-weight="normal" text-decoration="none" text-anchor="middle" fill="rgb(0,0,0)" fill-opacity="1" dy="0.9166666666666666em" transform="" style="font-style: normal;font-weight: 400;font-size: 12px;font-family: Comic Sans MS, cursive;" stroke="none" stroke-width="1px">Application</text></g><g><path d="M317.5267820445612 335.1982444813656 L674.9241289837973 333.7223613432996 L674.9628410879541 434.8989516878935 L316.97371464768725 436.07435639486954 L317.8934070517806 333.476804659091" stroke="none" stroke-width="0" fill="rgba(255, 255, 255, 0)"/><path d="M317.4342664282796 335.07359741231056 M317.72727483108025 334.82121929198064 C424.45941637736183 333.9925780008603, 530.6664014299139 334.0375284497563, 674.2235522414055 334.1560500929139 M674.7297029915997 334.3845173352681 C674.1815591507259 360.2684990727711, 675.094135778059 385.2563439284287, 673.7100924311382 434.62940347154654 M674.4814183032978 435.34817547511074 C540.4174723434658 435.41416463019567, 406.7379938259251 435.04580462534364, 317.9752296998447 435.24459880984233 M318.2879780310771 434.89623513056114 C317.4026987730991 397.67786152319974, 316.2278449480168 362.4296474422114, 318.1645417454206 334.02794072917897" stroke="rgb(0, 0, 0)" stroke-width="1.399999976158142" fill="none"/></g><g class="text-container" transform="matrix(1.4, 0, 0, 1.4, 496.1, 362.4)"><text font-family="'Arial'" font-size="12px" font-style="normal" font-weight="normal" text-decoration="none" text-anchor="middle" fill="rgb(0,0,0)" fill-opacity="1" transform="" style="font-style: normal;font-weight: 400;font-size: 12px;font-family: Comic Sans MS, cursive;" stroke="none" stroke-width="1px"><tspan dy="0.9166666666666666em" x="0">MAC Protocols</tspan><tspan dy="1.5em" x="0">(Ethernet, ...)</tspan></text></g><g><path d="M318.12916862461157 283.7927362426924 L674.3192827085844 283.28875398979307 L675.1816171858176 334.15426652379057 L317.8954371412098 334.9170829445489 L318.1240875265546 284.21902999249886" stroke="none" stroke-width="0" fill="rgba(255, 255, 255, 0)"/><path d="M316.9082933716515 284.35189806956845 M317.35717292501437 283.6182205326875 C444.74666288846345 284.52667327508357, 572.2644185610321 284.44531390448134, 674.7255523441879 283.49662835734836 M674.7538195552419 283.5521558791283 C673.6518303505077 303.96336057127564, 673.707746339751 324.54930873267097, 674.7429796494536 334.0867615926199 M674.9093758702438 333.79996674666654 C562.8745370290267 334.30601921560606, 450.36690371689514 334.02302966789546, 318.0911500392566 334.22949454807934 M316.84708233149354 334.2198450789717 C318.22061883697444 319.91716989539043, 317.0190244071803 305.46393973463745, 317.28682563812583 283.45866285890884" stroke="rgb(0, 0, 0)" stroke-width="1.399999976158142" fill="none"/></g><g class="text-container" transform="matrix(1.4, 0, 0, 1.4, 496.1, 299.4)"><text font-family="'Arial'" font-size="12px" font-style="normal" font-weight="normal" text-decoration="none" text-anchor="middle" fill="rgb(0,0,0)" fill-opacity="1" dy="0.9166666666666666em" transform="" style="font-style: normal;font-weight: 400;font-size: 12px;font-family: Comic Sans MS, cursive;" stroke="none" stroke-width="1px">IPX</text></g><g><path d="M675.3540716239202 334.29006881627953 L900.9907653265527 334.1777261378582 L900.6490419783382 435.7657939659479 L674.1703519614612 436.03952126620004 L674.5888001008967 334.6159508793472" stroke="none" stroke-width="0" fill="rgba(255, 255, 255, 0)"/><path d="M675.5509248789124 334.1119847709159 M675.2109322513054 333.605418213482 C761.4199246537995 335.32648853230165, 848.5513124248063 334.0721870676694, 902.0920434169765 333.96246388877057 M674.8047575462178 334.72084894880544 C762.086013890637 335.5020489665496, 849.7534453568105 335.6418522258161, 901.396176557241 334.1252696423863 M902.1534005168359 334.2923760645427 C901.1453626834859 360.0827174243069, 901.1739701568149 387.6896295177201, 900.4821874634378 435.122600721969 M901.3212893323638 334.66401603590396 C900.7289312088021 358.7960381219232, 901.5102634375149 384.48550508254255, 901.0344198861574 434.95495125749096 M900.7019897758422 436.0518020622015 C825.0426578890496 435.3222351058108, 748.7293999915382 435.24974593058306, 674.5343701656926 435.5661784439435 M901.0662902314401 434.81955695918 C823.4761115539237 434.9165944886246, 746.0706623713271 435.0416297893638, 674.6016746186355 435.57339599788446 M674.8526861457134 435.6842049046679 C674.9074439800431 409.700995510193, 675.371185987826 383.4254897625203, 674.3048480404104 334.53277193999145 M674.5347459880003 435.4263552111635 C674.9749853046033 398.0539776388773, 674.7212863318828 360.14503165515976, 674.9609944778747 334.6489114159752" stroke="rgb(0, 0, 0)" stroke-width="1.399999976158142" fill="none"/></g><g class="text-container" transform="matrix(1.4, 0, 0, 1.4, 788, 375)"><text font-family="'Arial'" font-size="12px" font-style="normal" font-weight="normal" text-decoration="none" text-anchor="middle" fill="rgb(0,0,0)" fill-opacity="1" dy="0.9166666666666666em" transform="" style="font-style: normal;font-weight: 400;font-size: 12px;font-family: Comic Sans MS, cursive;" stroke="none" stroke-width="1px">Dial-Up Modem</text></g><g><path d="M901.2213267625207 334.79853250339374 L1127.828561349444 334.268244155752 L1128.351086585576 435.16615684151674 L901.9550861226797 434.6514852424465 L900.7601981431583 334.7370328865389" stroke="none" stroke-width="0" fill="rgba(255, 255, 255, 0)"/><path d="M902.0939969103582 335.2774940069884 M900.7744565470808 334.56175869785875 C989.9739446802901 333.99014932345074, 1080.2987306746763 334.44688304799126, 1127.5481558805263 333.88494434234997 M1128.978694935987 333.91551020629635 C1127.7843397953666 372.98957285041746, 1127.841314275538 411.02476153140606, 1127.3231912803994 435.2640278699899 M1128.772913730574 435.9781054255197 C1075.2057340538113 434.4887105778537, 1021.4215564993804 433.5237622292445, 901.0394509962729 434.911897561089 M901.9114448659658 435.1349133996564 C901.2586029219701 407.8138824900053, 901.331002532299 379.48630576484754, 900.7652127324315 333.4027978354848" stroke="rgb(0, 0, 0)" stroke-width="1.399999976158142" fill="none"/></g><g class="text-container" transform="matrix(1.4, 0, 0, 1.4, 1014.8, 362.4)"><text font-family="'Arial'" font-size="12px" font-style="normal" font-weight="normal" text-decoration="none" text-anchor="middle" fill="rgb(0,0,0)" fill-opacity="1" transform="" style="font-style: normal;font-weight: 400;font-size: 12px;font-family: Comic Sans MS, cursive;" stroke="none" stroke-width="1px"><tspan dy="0.9166666666666666em" x="0">Null Modem</tspan><tspan dy="1.5em" x="0">(Serial RS-232 cable)</tspan></text></g><g><path d="M32.397760155834 333.44459653493715 L158.63993734531533 335.05665057215 L159.72089421584397 384.502824787374 L31.86760891917285 384.4585539742453 L32.40509616966933 335.1821361631596" stroke="none" stroke-width="0" fill="rgba(255, 255, 255, 0)"/><path d="M31.849370733315784 334.832354773454 M32.27200349162371 333.82525743316035 C70.7158549798617 334.2038505755278, 107.39351704569606 334.15303770756736, 158.6178093844579 334.7537507475029 M159.71905625976723 334.60226588686055 C158.61992261049636 346.49512527196856, 159.21835772455222 357.7525566978054, 159.36809607823483 385.59286638096137 M160.2296902256579 385.31948468085056 C122.00296895054801 385.5361620618119, 82.45411450820525 384.90430496936494, 31.43684480376579 385.2693383588396 M32.28774714363034 385.6446527531702 C32.093334575324356 365.49814110688783, 32.35073764693352 347.1410135965795, 32.2560542049296 335.0603793031448" stroke="rgb(0, 0, 0)" stroke-width="1.399999976158142" fill="none"/></g><g class="text-container" transform="matrix(1.4, 0, 0, 1.4, 95.7, 349.8)"><text font-family="'Arial'" font-size="12px" font-style="normal" font-weight="normal" text-decoration="none" text-anchor="middle" fill="rgb(0,0,0)" fill-opacity="1" dy="0.9166666666666666em" transform="" style="font-style: normal;font-weight: 400;font-size: 12px;font-family: Comic Sans MS, cursive;" stroke="none" stroke-width="1px">Link</text></g><g><path d="M32.61983864960381 234.40745947155386 L159.61861214025126 234.56117675491097 L159.88532730303092 334.62604406928733 L32.06259374965768 333.46383392124517 L32.34295483769063 233.17327674189067" stroke="none" stroke-width="0" fill="rgba(255, 255, 255, 0)"/><path d="M31.2943615464156 234.4133765904372 M32.75932130768047 233.598259864899 C65.26490975164441 233.4372169710471, 98.4991457963319 233.94993234320071, 159.87220124183332 233.67636702527017 M159.6137232127144 232.66741947484564 C159.17645050366554 260.0425200231092, 160.23227909865176 286.92784859320705, 159.5581701439127 333.77522885104725 M159.3712838098652 333.6040709135967 C131.11148527732917 334.98272885080473, 104.75315882003613 334.03645800293253, 32.967902205931075 334.86621970454996 M32.322326469254385 335.16974806650893 C31.485461980686548 296.69540706298966, 32.80479281911606 259.3809036875678, 31.48662025074081 233.23266223651103" stroke="rgb(0, 0, 0)" stroke-width="1.399999976158142" fill="none"/></g><g class="text-container" transform="matrix(1.4, 0, 0, 1.4, 95.7, 274.2)"><text font-family="'Arial'" font-size="12px" font-style="normal" font-weight="normal" text-decoration="none" text-anchor="middle" fill="rgb(0,0,0)" fill-opacity="1" dy="0.9166666666666666em" transform="" style="font-style: normal;font-weight: 400;font-size: 12px;font-family: Comic Sans MS, cursive;" stroke="none" stroke-width="1px">Internet</text></g><g><path d="M31.889578965959387 184.16119484711618 L158.70420789837243 184.15989238008922 L159.55026402356637 233.79479234521165 L32.72196158908778 234.05256221888627 L32.53576343151903 182.9828184697077" stroke="none" stroke-width="0" fill="rgba(255, 255, 255, 0)"/><path d="M31.90992884072796 182.2228582262799 M31.848007742558526 183.35884584315247 C72.95571324353216 182.70917179120113, 115.49923232982509 182.6965118231732, 158.6637527653686 183.5263872898217 M160.27734862993134 183.12119928004535 C160.36198153820445 199.48315988048876, 159.4747622090356 216.81741928417898, 158.67300802673535 233.18934752059133 M160.2477448331868 233.48505270601697 C116.39800619219382 234.21932489523476, 74.8338809970033 233.4196765416823, 31.650544173496368 233.48704291450153 M31.627998899788707 233.33313127985187 C31.27084004296013 219.5246601263549, 31.79448056528353 207.17407919125262, 32.16230858577624 182.24245125663793" stroke="rgb(0, 0, 0)" stroke-width="1.399999976158142" fill="none"/></g><g class="text-container" transform="matrix(1.4, 0, 0, 1.4, 95.7, 198.6)"><text font-family="'Arial'" font-size="12px" font-style="normal" font-weight="normal" text-decoration="none" text-anchor="middle" fill="rgb(0,0,0)" fill-opacity="1" dy="0.9166666666666666em" transform="" style="font-style: normal;font-weight: 400;font-size: 12px;font-family: Comic Sans MS, cursive;" stroke="none" stroke-width="1px">Transport</text></g><g><path d="M31.524061296908357 31.093251729948502 L160.3859068198865 31.095372951603416 L158.93856708190086 182.9196664419953 L32.86208610027027 182.59041358511718 L31.35855313803667 32.087290409808396" stroke="none" stroke-width="0" fill="rgba(255, 255, 255, 0)"/><path d="M31.060487671687078 31.42202979665614 M32.40030093656891 31.57977514829565 C72.21065216037748 32.912396321284625, 115.001124938425 32.36036773334489, 158.62471377921648 32.67564315393159 M158.7671305755328 31.805264968939465 C158.67892832979658 77.37448900576258, 158.1901409016862 120.10305521195242, 159.07485400734856 183.0371077178976 M159.4068203075863 183.19987064734562 C129.8224554288596 182.07122335689348, 100.26679339245182 183.49553433761693, 31.190100198501803 183.61893506755413 M31.672523074541296 182.8019206135651 C32.36873833889652 128.086256064763, 32.0948229389209 73.88885788092273, 32.23874018681649 31.408532597108223" stroke="rgb(0, 0, 0)" stroke-width="1.399999976158142" fill="none"/></g><g class="text-container" transform="matrix(1.4, 0, 0, 1.4, 95.7, 97.8)"><text font-family="'Arial'" font-size="12px" font-style="normal" font-weight="normal" text-decoration="none" text-anchor="middle" fill="rgb(0,0,0)" fill-opacity="1" dy="0.9166666666666666em" transform="" style="font-style: normal;font-weight: 400;font-size: 12px;font-family: Comic Sans MS, cursive;" stroke="none" stroke-width="1px">Application</text></g><g><path d="M674.5704212050734 233.80066219802072 L1128.5578709184697 234.0846323745699 L1128.2603833114833 335.28042604427134 L674.4721642644595 334.9727549184244 L673.7378251952289 233.98647529333087" stroke="none" stroke-width="0" fill="rgb(210, 222, 238)"/><path d="M673.7817644605308 233.48482448166476 M674.6428711552184 233.73241456233777 C802.7641683018053 233.72647506501954, 931.2143480786377 233.3048888707576, 1128.0997989393736 233.43711302991554 M674.3618637256317 233.6037528924805 C849.3662713205671 233.14353443583025, 1024.0921779242697 233.26013218929626, 1128.0259504987287 233.39690326142627 M1128.2182071582488 233.50790049495862 C1128.4723292313658 264.08874750321525, 1128.144391810815 292.32031125197284, 1128.198850191738 333.54193811094103 M1128.5493062458775 233.31597176935153 C1128.1311268919685 272.0711868635506, 1128.4505405866228 310.99264848782, 1128.3760158804814 334.78952251228804 M1127.970606981136 334.68367895857807 C1028.6464151048451 333.9754082072465, 930.3452996877546 333.7691431851132, 674.7276287910553 334.72838164040706 M1128.2410971620088 334.1989763683228 C980.9246856131174 333.4757397310821, 833.9456908374761 333.6732811012213, 674.4062526195445 334.5698745135809 M675.1965295533178 335.1559301149337 C673.6196453952327 305.9970902393696, 675.1552668653383 278.1387343151444, 674.1669196918185 234.24057208658158 M674.1336685588697 334.33065126516783 C674.3852262917352 299.66483066786355, 675.0289439342722 265.4823945865084, 674.6976609104481 233.81699470161422" stroke="rgb(0, 0, 0)" stroke-width="1.399999976158142" fill="none"/></g><g class="text-container" transform="matrix(1.4, 0, 0, 1.4, 901.4, 249)"><text font-family="'Arial'" font-size="12px" font-style="normal" font-weight="normal" text-decoration="none" text-anchor="middle" fill="rgb(0,0,0)" fill-opacity="1" transform="" style="font-style: normal;font-weight: 400;font-size: 12px;font-family: Comic Sans MS, cursive;" stroke="none" stroke-width="1px"><tspan dy="0.9166666666666666em" x="0">Mixed 16 bit real mode &amp; 32 bit protected mode driver</tspan><tspan dy="1.5em" x="0">for dial-up and null modem use cases</tspan><tspan dy="1.5em" x="0">(transmission control, buffer management)</tspan></text></g><g><path d="M316.984001925738 233.54607578499883 L674.2210500921337 233.33998097936325 L674.7585299139622 284.57561880695835 L318.366487050651 283.21919125086526 L317.51999820253604 234.29332732115904" stroke="none" stroke-width="0" fill="rgb(210, 222, 238)"/><path d="M317.021051378735 232.81462115347148 M317.9561221092008 233.79649989030744 C390.7137055715199 233.44479950049737, 463.9179231006825 233.31697864091635, 674.833560792216 233.34994666527984 M317.39239000402586 233.83316694695807 C431.827544027512 234.32327757635215, 546.0191763072435 234.56402017332243, 674.3642043331705 233.6782314956245 M674.0457376283246 234.32133555965777 C674.6753071222206 248.8005732066427, 675.4255374332489 263.0010404096627, 674.9381629465747 284.88103465984017 M674.7865418323764 233.6389707239611 C674.3648320077549 248.42714462561273, 674.8639977614366 263.51068351817304, 674.2986436713882 283.5834827305009 M674.8854862474615 283.5726578125139 C535.9685799242192 283.5074737958917, 397.34692719033444 283.9432883620649, 317.73570918943875 283.688651550489 M674.6247325453784 284.22426300083146 C563.651393164811 283.0002716502666, 453.26617324215607 282.76747307813065, 317.7586650903296 284.22687068591426 M318.26246956342516 284.9047690225922 C317.1817462344693 265.6693761817137, 316.78318238832014 248.5063151990897, 317.5712966757977 234.43669719104565 M317.7277243306199 284.1745943342532 C317.5750530217512 265.35672607494666, 317.2643952503867 246.57738524000357, 317.90716670579866 234.0377810508622" stroke="rgb(0, 0, 0)" stroke-width="1.399999976158142" fill="none"/></g><g class="text-container" transform="matrix(1.4, 0, 0, 1.4, 496.1, 236.4)"><text font-family="'Arial'" font-size="12px" font-style="normal" font-weight="normal" text-decoration="none" text-anchor="middle" fill="rgb(0,0,0)" fill-opacity="1" transform="" style="font-style: normal;font-weight: 400;font-size: 12px;font-family: Comic Sans MS, cursive;" stroke="none" stroke-width="1px"><tspan dy="0.9166666666666666em" x="0">IPX driver</tspan><tspan dy="1.5em" x="0">(DPMI services, buffer management)</tspan></text></g><g><path d="M316.8330826068007 182.65808173364687 L1128.5977273674164 183.19831327916165 L1127.6915650939472 234.20564546152514 L318.5080187891101 234.31829958090555 L318.3839745139636 183.83135674410917" stroke="none" stroke-width="0" fill="rgb(210, 222, 238)"/><path d="M317.5201047272974 184.1393026322066 M317.418651319396 183.28203957329117 C536.0121752649617 181.51226151889585, 753.444807543012 181.831954487453, 1127.8560632816557 183.01518406350468 M317.5105206446682 183.29829647796083 C590.9612100761809 184.1089168276934, 864.2212794397885 183.7800867044844, 1128.3309309641052 183.18598727788017 M1127.2005209233444 182.4719582486218 C1127.6072679395963 201.744140781695, 1127.584519372676 220.89760492034773, 1128.6836236086274 233.7611605916654 M1128.416920636709 182.82255186282194 C1128.33441459346 195.59849382941755, 1127.785818665499 208.6721823829514, 1128.5483691135878 233.37488278966245 M1128.3767536742982 233.8604769528619 C842.2136004423572 233.92432764050358, 555.6005801335642 233.94517322124815, 317.3194714801521 233.550862422725 M1128.1937106788216 233.60243423364696 C901.2628649781603 234.4201212524378, 674.3874067054967 234.23650615948193, 317.413841198913 233.78882296894278 M317.32894460816095 233.90006111558918 C317.9690088146269 222.5935732236349, 317.065265671995 210.43538656159134, 317.3465610161679 183.37684573176531 M317.1575401605335 233.7875864287428 C318.25771624834675 222.06957948307473, 317.4846930474629 209.6106679290649, 317.2798935526739 183.12228105051008" stroke="rgb(0, 0, 0)" stroke-width="1.399999976158142" fill="none"/></g><g class="text-container" transform="matrix(1.4, 0, 0, 1.4, 722.9, 198.6)"><text font-family="'Arial'" font-size="12px" font-style="normal" font-weight="normal" text-decoration="none" text-anchor="middle" fill="rgb(0,0,0)" fill-opacity="1" dy="0.9166666666666666em" transform="" style="font-style: normal;font-weight: 400;font-size: 12px;font-family: Comic Sans MS, cursive;" stroke="none" stroke-width="1px">M.A.X. Network Protocol (Connectionless, packet-oriented, CRC16 checksum)</text></g><g><path d="M317.79705745018845 32.76424175293288 L1127.7728735947733 31.843343727485358 L1127.8554027606128 183.61320629494782 L318.4465445779652 183.37359449621795 L316.86514636248506 31.36789974732844" stroke="none" stroke-width="0" fill="rgb(210, 222, 238)"/><path d="M318.0006053715596 32.26934654772057 M317.22066101187653 31.635702531983057 C619.4948787433179 33.216348280422714, 921.9831033296049 33.885372720324746, 1127.927853203618 31.71499848757998 M1127.6723931150784 32.67747758068889 C1128.0366659414742 66.52044711527292, 1127.917623298138 100.0923661266286, 1128.1945852179988 182.74152609548867 M1128.2377572912508 183.349425190668 C893.7560324984695 181.89420258937565, 660.2799628715987 181.82187300883757, 317.8920429589953 183.55004994358524 M318.24619536543844 182.2389518785347 C316.30324853569925 143.36550377947066, 316.9939756752991 103.75084928326348, 317.8183574203618 32.602429767674664" stroke="rgb(0, 0, 0)" stroke-width="1.399999976158142" fill="none"/></g><g class="text-container" transform="matrix(1.4, 0, 0, 1.4, 722.9, 47.4)"><text font-family="'Arial'" font-size="12px" font-style="normal" font-weight="normal" text-decoration="none" text-anchor="middle" fill="rgb(0,0,0)" fill-opacity="1" transform="" style="font-style: normal;font-weight: 400;font-size: 12px;font-family: Comic Sans MS, cursive;" stroke="none" stroke-width="1px"><tspan dy="0.9166666666666666em" x="0">Manage "client connections"</tspan><tspan dy="1.5em" x="0">- transmission timeouts</tspan><tspan dy="1.5em" x="0">- retransmission of lost packets</tspan><tspan dy="1.5em" x="0">- reordering of received packets</tspan><tspan dy="1.5em" x="0">- ...</tspan></text></g></svg>