<svg xmlns="http://www.w3.org/2000/svg" data-v-3acb27dc="" class="sketchy-canvas visible" width="1200" height="365" stroke-linecap="round" xmlns:xlink="http://www.w3.org/1999/xlink"><defs><clipPath id="ygc136_0_0"><rect x="25" y="25" width="1149.2" height="314.2" transform="matrix(1, 0, 0, 1, 0, 0)"/></clipPath></defs><g><path d="M257.1191139118417 106.93696140333157 M257.0331197337345 107.78015222347952 C287.4565466610184 108.18947968660238, 316.3171878991628 107.3968042403783, 337.0325223180996 107.2223591915251 M257.1967192977725 107.36693399928163 C278.3391026781873 107.28685076590993, 299.7692180479849 107.24492586965839, 337.39519767233224 107.5416909278524" stroke="rgb(0, 0, 0)" stroke-width="1.125" fill="none"/></g><g><path d="M562.3055880113022 136.90077308244003 M562.3303965940694 136.97891286421876 C684.714732761137 135.9552190543775, 808.2910155116647 136.4538980156987, 943.5224931852171 137.52451147138933" stroke="rgb(0, 0, 0)" stroke-width="1.125" fill="none"/></g><g><path d="M562.7590800304075 167.50144698924137 M561.2174829517414 167.13956116603117 C580.7159920706154 166.56400761460742, 599.1546615998665 166.78637027438612, 639.8873775650042 168.37081603818424 M562.2957860127544 167.3609803513304 C581.1670617908202 167.1344003015692, 599.6976918332052 167.76823826679674, 639.6232370309286 167.27987984279005" stroke="rgb(0, 0, 0)" stroke-width="1.125" fill="none"/></g><g><path d="M32.31400029130886 61.71226802401134 L257.9833461838622 62.52167051552981 L258.21898709755203 91.66345150631743 L33.10670721471758 92.0528267989433 L33.44033503252995 61.71148754591065" stroke="none" stroke-width="0" fill="rgba(255, 255, 255, 0)"/><path d="M31.766740578826482 63.42149448116161 M32.942064340816806 62.7922932941055 C112.6002281323169 61.43660939409823, 192.2186135675537 61.323406501267044, 257.7827602949033 61.83509248514441 M32.69471569625303 62.86365455517668 C77.95209544198937 62.636231172814654, 123.7312465495181 63.263528934555744, 257.8556829784706 62.92801804647528 M258.4083147270814 63.47090697080267 C257.76207079494253 70.75201924000666, 257.9125272937164 78.60266698720945, 256.81950113414246 92.41151193977407 M257.11278380883397 62.00957653229121 C257.8706031956169 69.62915916834855, 257.93741606511196 76.32608148867716, 257.19893122749005 92.93575494727266 M257.43769416745016 92.1193493897647 C177.9917413562718 92.9836410446, 97.25664339765171 93.98890797155524, 32.50453414407801 91.89119971390728 M257.8946204290358 92.65029877640787 C179.39438021525467 92.88825912259315, 100.52696757379165 92.49617190230747, 32.40409709088484 92.89273278387579 M32.203315369666 93.05923494273357 C32.58799888575814 83.6206436755297, 33.41702876553925 74.4292115840482, 33.39461579018886 62.29815273229716 M32.39513227490803 92.05580985179294 C32.908943485052646 86.69518228735625, 32.5025113253063 80.18615696460768, 32.83380286160936 62.341476855065316" stroke="rgb(0, 0, 0)" stroke-width="1.5" fill="none"/></g><g class="text-container" transform="matrix(1.5, 0, 0, 1.5, 145, 67)"><text font-family="'Arial'" font-size="12px" font-style="normal" font-weight="normal" text-decoration="none" text-anchor="middle" fill="rgb(0,0,0)" fill-opacity="1" dy="0.9166666666666666em" transform="" style="font-style: normal;font-weight: 400;font-size: 12px;font-family: Comic Sans MS, cursive;" stroke="none" stroke-width="1px">IPX Header (30 bytes)</text></g><g><path d="M33.012399975368936 92.37136103466919 L257.3184243188462 93.1102059980896 L256.9989744796221 122.4816392447019 L32.66144729626924 122.50493350620675 L33.28776118952209 91.53392217067872" stroke="none" stroke-width="0" fill="rgba(255, 255, 255, 0)"/><path d="M31.949167851790936 92.25339706697893 M32.82824439464891 91.78635979967561 C106.88512297516573 90.94888145665196, 181.40604261611693 92.18893373655955, 258.0219030365389 92.92527591293185 M257.4658725034643 92.72087699443443 C257.01959740506516 102.5189192069735, 258.59324258007473 112.71743218305171, 258.2465758279985 121.95234078005912 M256.70507457671926 121.80418644702856 C192.57519343802167 123.1049006564341, 128.3721928362344 122.56087994575405, 32.74719444633099 122.42248031054564 M32.98477626874033 122.28574635948353 C32.747861530590924 114.26780704401007, 32.53573799102521 107.72461258542654, 32.039598359982556 93.28187011197767" stroke="rgb(0, 0, 0)" stroke-width="1.5" fill="none"/></g><g class="text-container" transform="matrix(1.5, 0, 0, 1.5, 145, 97)"><text font-family="'Arial'" font-size="12px" font-style="normal" font-weight="normal" text-decoration="none" text-anchor="middle" fill="rgb(0,0,0)" fill-opacity="1" dy="0.9166666666666666em" transform="" style="font-style: normal;font-weight: 400;font-size: 12px;font-family: Comic Sans MS, cursive;" stroke="none" stroke-width="1px">Data</text></g><g><path d="M32.30625365531421 32.3314272605607 L258.4060747937601 33.20507385645762 L256.50525265720995 61.63547389317721 L33.16171396488242 62.38253812363446 L31.68343022000765 32.926199802488874" stroke="none" stroke-width="0" fill="rgb(210, 222, 238)"/><path d="M32.44426158579359 31.80307480752826 M31.749945650207998 32.51825547980658 C114.65826086873248 33.20778818655967, 198.19145835392854 32.86503758300644, 257.1973938935051 33.15460444529107 M256.64533917693996 32.54116880162359 C256.8872333828275 41.3467256328931, 258.39897928870715 47.85542089698113, 257.51724646400737 62.878654775751045 M257.8831643540884 61.7850070501029 C195.37305507294394 63.15638006849893, 131.36608360839236 63.11402818596463, 32.29560917686723 63.33674746123604 M32.14510364766961 62.9931988607356 C31.64258680699123 53.6010326140762, 32.15711127952996 46.40953319643871, 31.945777355729728 31.894445764734062" stroke="rgb(0, 0, 0)" stroke-width="1.5" fill="none"/></g><g class="text-container" transform="matrix(1.5, 0, 0, 1.5, 145, 37)"><text font-family="'Arial'" font-size="12px" font-style="normal" font-weight="normal" text-decoration="none" text-anchor="middle" fill="rgb(0,0,0)" fill-opacity="1" dy="0.9166666666666666em" transform="" style="font-style: normal;font-weight: 400;font-size: 12px;font-family: Comic Sans MS, cursive;" stroke="none" stroke-width="1px">IPX Packet</text></g><g><path d="M336.1257246218038 121.5838298448834 L562.3564438256103 122.51308812538896 L561.1338078549105 151.96155946764804 L337.4509245798621 151.93488056564306 L336.55645820102916 122.17830084936521" stroke="none" stroke-width="0" fill="rgba(255, 255, 255, 0)"/><path d="M336.3262671792375 123.34109937934726 M337.26734175436087 122.47657544997634 C404.3595073255638 122.29617511304427, 471.7874511659555 121.4983847717627, 561.3525891465348 121.90976360738463 M336.905582881662 122.28660114283936 C399.86879892009466 121.72539626198247, 463.1676322749305 121.91612032945908, 562.0207924991367 122.3530527949355 M561.646463060501 121.66456841696701 C561.6798357911983 131.67168154621973, 562.2308516284273 142.22704783828434, 562.4462971738927 152.33950191499153 M561.6278323312813 122.98063270636592 C562.0523858195166 132.54797822573735, 562.45805816304 142.87115615697095, 562.3120032575449 152.78259817253877 M561.2928321789736 153.16108640243084 C476.20657141170494 152.31217412141453, 390.5269597266084 151.88087271125775, 337.69530834587545 152.8904719900057 M562.264213180134 152.3741759256112 C504.17949275567486 152.44449393929457, 447.1961046956502 152.56872900667008, 336.5865229478642 152.62953842416434 M337.89080626109364 152.52535073893785 C336.1618046081719 145.9369425738293, 337.28238404207906 139.58211141957764, 337.0137524071741 122.86096318581032 M337.24638555892517 152.7570142750608 C337.1766988900349 141.51638627913923, 337.4977069231211 129.37729483836122, 337.4809154874264 122.1644885197891" stroke="rgb(0, 0, 0)" stroke-width="1.5" fill="none"/></g><g class="text-container" transform="matrix(1.5, 0, 0, 1.5, 449.5, 127)"><text font-family="'Arial'" font-size="12px" font-style="normal" font-weight="normal" text-decoration="none" text-anchor="middle" fill="rgb(0,0,0)" fill-opacity="1" dy="0.9166666666666666em" transform="" style="font-style: normal;font-weight: 400;font-size: 12px;font-family: Comic Sans MS, cursive;" stroke="none" stroke-width="1px">IPX Protocol Header</text></g><g><path d="M337.032620828619 151.55607243130976 L562.7979156516776 152.1066836036489 L562.9176335631627 181.98411549454943 L337.3076332187855 183.19562115877898 L336.8804447630548 153.46354467852674" stroke="none" stroke-width="0" fill="rgba(255, 255, 255, 0)"/><path d="M337.1849483270078 151.76036505576346 M336.9261913238111 151.86495541301736 C383.2187494155619 152.76225467209835, 431.23215021708836 152.50856311825606, 561.5665886243346 152.16987549378572 M336.66568664807346 152.74442787773174 C410.1241929692749 153.00198254424066, 482.5618222352906 152.7116063385839, 561.7093069734755 152.18604851080696 M561.3691966334202 152.2108759633631 C561.7536067853717 160.3246031585255, 562.057909071851 170.19819316193025, 561.4926149507427 181.69912047775432 M561.6174786678836 152.51048479110045 C562.4923941545958 162.69093147960487, 561.996615046805 173.86191167531035, 562.3564812710623 182.94550308105056 M561.5741081495646 182.50117269007112 C495.415675490276 181.8554935946987, 427.9106362831059 183.3458749009515, 337.3479994950402 182.9146641100115 M562.3406659765225 182.89411250537214 C499.3515975464445 182.46088424824308, 436.5535290097921 182.15590966840827, 336.74926203387525 182.74672355868972 M337.7430519219992 181.72962819941262 C336.8203621787679 174.44175736082724, 337.5029708267877 165.9340683668711, 337.69602024975563 153.15237569593248 M336.5990237457692 182.245237793465 C336.7272401560968 174.12267395944906, 337.3884530971036 165.07842442237245, 337.2112947441505 152.9954902426711" stroke="rgb(0, 0, 0)" stroke-width="1.5" fill="none"/></g><g class="text-container" transform="matrix(1.5, 0, 0, 1.5, 449.5, 157)"><text font-family="'Arial'" font-size="12px" font-style="normal" font-weight="normal" text-decoration="none" text-anchor="middle" fill="rgb(0,0,0)" fill-opacity="1" dy="0.9166666666666666em" transform="" style="font-style: normal;font-weight: 400;font-size: 12px;font-family: Comic Sans MS, cursive;" stroke="none" stroke-width="1px">M.A.X. Packet</text></g><g><path d="M337.7593917519845 93.08334136395156 L562.408635886939 93.3030667493493 L561.5938254597446 122.4227064278648 L337.32075668111185 123.4366968455151 L336.66107070575754 91.85499072524708" stroke="none" stroke-width="0" fill="rgb(210, 222, 238)"/><path d="M336.7061524382738 91.8836994994716 M336.92552686239776 93.1312015371648 C420.0289224220229 92.84014092483245, 502.233859726239 92.47472940170877, 562.1923863363015 92.28377848966592 M561.0860959090836 91.80283738140324 C562.1387641530251 102.88508916901358, 562.3993623065073 114.57809640213928, 561.5153231675944 122.34632243854887 M561.5709370321271 121.75186923608703 C508.7904605674694 121.24483865348945, 454.99240260696786 121.63433612441365, 337.07087507331306 122.09476911440649 M337.95066301595136 123.16976743274017 C337.18357173172956 115.62977500687761, 336.54345955358195 108.13502669984263, 336.68086332010836 92.35949056617812" stroke="rgb(0, 0, 0)" stroke-width="1.5" fill="none"/></g><g class="text-container" transform="matrix(1.5, 0, 0, 1.5, 449.5, 97)"><text font-family="'Arial'" font-size="12px" font-style="normal" font-weight="normal" text-decoration="none" text-anchor="middle" fill="rgb(0,0,0)" fill-opacity="1" dy="0.9166666666666666em" transform="" style="font-style: normal;font-weight: 400;font-size: 12px;font-family: Comic Sans MS, cursive;" stroke="none" stroke-width="1px">Data</text></g><g><path d="M943.3431486481992 153.23052848629695 L1167.8773955076572 151.79995475792174 L1167.4650505236514 182.51839698973842 L942.0762885166058 181.69318362174874 L942.6318139404576 152.9848605043757" stroke="none" stroke-width="0" fill="rgba(255, 255, 255, 0)"/><path d="M942.3920558995428 151.83644953522375 M943.0632557671996 153.18358516550506 C991.2895158496436 152.41608315459536, 1040.5744764748451 151.6055113394911, 1168.2828585322704 152.91183233329983 M1168.8190207249108 153.19939911335138 C1167.5298931839197 163.47196572789292, 1167.7681326349455 172.1197329941366, 1167.9681732430022 182.71345304184487 M1168.6965639708894 182.36291741607317 C1115.3806529560472 181.69271989408304, 1063.9300736547596 181.56212556448125, 943.4935024323532 182.23072103019226 M943.0512050087195 183.12062517870493 C943.778216958494 176.93557537747074, 943.7904538284794 169.98405103792166, 943.1555266462634 151.87192734070206" stroke="rgb(0, 0, 0)" stroke-width="1.5" fill="none"/></g><g class="text-container" transform="matrix(1.5, 0, 0, 1.5, 1055.5, 157)"><text font-family="'Arial'" font-size="12px" font-style="normal" font-weight="normal" text-decoration="none" text-anchor="middle" fill="rgb(0,0,0)" fill-opacity="1" dy="0.9166666666666666em" transform="" style="font-style: normal;font-weight: 400;font-size: 12px;font-family: Comic Sans MS, cursive;" stroke="none" stroke-width="1px">Packet Number (4 bytes)</text></g><g><path d="M942.4012050947482 182.92561168375195 L1168.757112892368 183.26478676805374 L1168.265613955346 213.1540155173236 L943.59406284994 213.25702507739777 L942.3034271683431 183.41928223967656" stroke="none" stroke-width="0" fill="rgba(255, 255, 255, 0)"/><path d="M942.2220150340833 181.9116029701473 M942.3789411245484 183.0800636042245 C1016.8403738107436 183.4374534607784, 1090.5441474305412 182.12673015504296, 1168.1445853226999 182.61095962296557 M1168.071933701705 181.80338174582846 C1167.6369494143798 192.63466609523164, 1168.0126884747685 205.69921460898016, 1167.9075470902278 211.555679119029 M1168.290391992441 212.4448644349498 C1115.5160224053307 211.77314539231773, 1061.7934793193438 211.89357986529464, 942.2122821006091 211.99660376386618 M943.7588629351651 211.98563104634664 C942.0476843347769 203.1377545464895, 943.9312003916252 190.85965382795564, 942.2016650654996 183.20506652242116" stroke="rgb(0, 0, 0)" stroke-width="1.5" fill="none"/></g><g class="text-container" transform="matrix(1.5, 0, 0, 1.5, 1055.5, 187)"><text font-family="'Arial'" font-size="12px" font-style="normal" font-weight="normal" text-decoration="none" text-anchor="middle" fill="rgb(0,0,0)" fill-opacity="1" dy="0.9166666666666666em" transform="" style="font-style: normal;font-weight: 400;font-size: 12px;font-family: Comic Sans MS, cursive;" stroke="none" stroke-width="1px">RNG Seed (2 bytes)</text></g><g><path d="M942.1457677008052 123.2348509326927 L1168.9811766443659 123.33309565955888 L1167.0751303222335 152.8880117215878 L942.2363234471128 152.58845926225794 L943.6272196992959 123.18663733191211" stroke="none" stroke-width="0" fill="rgb(210, 222, 238)"/><path d="M943.2365790252682 122.63717251248472 M943.5995404011172 122.60464003181276 C1013.7426688685107 123.24014218094968, 1082.5211205229498 122.68003229130422, 1167.6297586449973 122.69427569728201 M942.8892918146605 122.15735597326852 C1028.8971096761563 122.24572216009526, 1114.209459478175 122.51077771085659, 1167.6761359093498 122.25754291147507 M1167.8867106593232 122.08910316847992 C1168.473448429281 130.52151567867787, 1168.5847844529367 139.65832023339263, 1167.4581115054225 153.18347143268025 M1168.2046189714958 122.19505796843936 C1167.611336664616 131.2738954175762, 1167.6351732647083 139.98123177750392, 1167.692767507184 152.5205875920767 M1168.7064201970438 151.916279176136 C1105.48488149145 153.16938261835688, 1043.265552468064 151.6317478246507, 943.4258409140866 151.7681977700764 M1168.0331211610458 152.37881942069495 C1090.6886254051483 152.41906201777317, 1013.5534827884173 151.89951945356134, 943.254414632194 152.22554684709948 M943.9914436141542 152.58635820905596 C943.2866615274295 141.25171561864076, 943.987988811803 129.82816088477568, 942.9573304777748 122.08797965081851 M942.9502686943839 152.3391667701354 C942.8210794707389 140.9708272828162, 942.5336727866098 130.65806300232055, 942.9124350160553 122.08887044973625" stroke="rgb(0, 0, 0)" stroke-width="1.5" fill="none"/></g><g class="text-container" transform="matrix(1.5, 0, 0, 1.5, 1055.5, 127)"><text font-family="'Arial'" font-size="12px" font-style="normal" font-weight="normal" text-decoration="none" text-anchor="middle" fill="rgb(0,0,0)" fill-opacity="1" dy="0.9166666666666666em" transform="" style="font-style: normal;font-weight: 400;font-size: 12px;font-family: Comic Sans MS, cursive;" stroke="none" stroke-width="1px">IPX Protocol Header</text></g><g><path d="M640.5994754480104 182.08357691870233 L865.6440065442869 182.57433247078285 L865.0946475991884 213.4736549032723 L640.2673214523869 212.60412999440715 L639.6915363809212 182.74761637511224" stroke="none" stroke-width="0" fill="rgba(255, 255, 255, 0)"/><path d="M639.9449870251635 182.46258189275338 M640.3893536790987 182.47872709208673 C691.6799518613113 181.80340945320955, 742.6824402295799 181.4048623950455, 864.3010223646402 181.8841941413093 M640.012288715869 182.4173600765236 C701.2768603659364 182.85361893873966, 762.3006405195173 182.95035014718306, 865.39482321172 182.15682211929348 M864.0664367481058 182.7024272296378 C865.0261866932472 190.90556348964978, 864.3321618837649 199.72682259618045, 865.7983577863878 211.85988699385072 M864.9557804514748 182.6292723540964 C865.1204654669982 189.06447168273706, 864.5172484762561 194.9875007641178, 864.9330416702369 212.31013605940853 M865.2779367259475 212.40944214826 C818.3328991643682 212.10431217974187, 771.0386907073073 211.53695777120805, 640.2351183624513 212.21195038519775 M865.11717750102 212.22683176822463 C799.9388542686962 212.21558942478362, 735.5363954031264 212.01447498137173, 639.7672168786899 212.51235350491396 M639.4753331358468 212.01403586316042 C639.8702679296658 206.74884572662046, 640.0806933460053 199.2419323122286, 639.280026168422 182.96211216619213 M639.5296267574355 212.0735886997823 C639.9069232407438 205.16278269641543, 640.5998046727279 197.47795814296433, 639.5047120983132 182.00741693372325" stroke="rgb(0, 0, 0)" stroke-width="1.5" fill="none"/></g><g class="text-container" transform="matrix(1.5, 0, 0, 1.5, 752.5, 187)"><text font-family="'Arial'" font-size="12px" font-style="normal" font-weight="normal" text-decoration="none" text-anchor="middle" fill="rgb(0,0,0)" fill-opacity="1" dy="0.9166666666666666em" transform="" style="font-style: normal;font-weight: 400;font-size: 12px;font-family: Comic Sans MS, cursive;" stroke="none" stroke-width="1px">Packet Type (1 byte)</text></g><g><path d="M640.321313224527 212.68653212506058 L864.6638043694886 211.8589745825231 L865.8430195134932 242.01705116904944 L639.4434064934535 243.0048459092216 L639.8246817275412 213.2605306090223" stroke="none" stroke-width="0" fill="rgba(255, 255, 255, 0)"/><path d="M639.6949543506087 213.28330712001468 M640.8364672329935 212.8860463262199 C723.438042342317 213.5024124483944, 808.479536536465 212.70063259166096, 865.3733860357696 212.3303079325526 M640.1923281842985 212.70611232401967 C692.5672592254081 212.33069465649768, 745.0955318642451 212.78493247071597, 865.0740753141646 212.78574885213982 M864.4814683264716 212.68526368827943 C865.6512543766565 219.92653547583032, 864.2618284853736 225.11880115695973, 865.4182744237892 243.38947278064234 M864.8629966359092 212.6321058639924 C865.2467466748623 218.77368517374634, 864.967319386787 225.26074177386306, 864.8728575962123 242.70088908074908 M865.1299474190309 243.237402946051 C795.501695864575 241.11718823696873, 725.9233823301969 242.10287294709502, 639.4991190933802 242.85484017321906 M865.2892150850427 242.68827003031743 C815.2282694194244 243.01677529462972, 764.532679401336 243.25064675904204, 639.9737638662325 242.81613553503772 M639.8815756214723 243.299034394032 C639.7214792413884 233.8733803085748, 639.8267215698224 225.5918149755953, 639.4639814184054 211.91847601785517 M639.6924124748846 242.6357630652356 C639.7359715488038 236.5282610711477, 640.3088757368446 230.09569869619773, 639.8688995616421 212.22437811509434" stroke="rgb(0, 0, 0)" stroke-width="1.5" fill="none"/></g><g class="text-container" transform="matrix(1.5, 0, 0, 1.5, 752.5, 217)"><text font-family="'Arial'" font-size="12px" font-style="normal" font-weight="normal" text-decoration="none" text-anchor="middle" fill="rgb(0,0,0)" fill-opacity="1" dy="0.9166666666666666em" transform="" style="font-style: normal;font-weight: 400;font-size: 12px;font-family: Comic Sans MS, cursive;" stroke="none" stroke-width="1px">Target Node (2 bytes)</text></g><g><path d="M640.3270974977244 151.7050087655402 L865.7159817354151 152.32827106604643 L864.2300547478907 182.43514939233432 L640.6104061755245 183.25563171911594 L639.5143810353004 152.96506131804387" stroke="none" stroke-width="0" fill="rgb(210, 222, 238)"/><path d="M640.8459614209814 152.96609619070895 M639.5228978754088 152.2848038573932 C704.3602887078235 151.7664505406749, 768.0564266701173 150.9817805075115, 865.4927108367435 152.97052179894533 M639.819043645417 152.36475845028363 C703.2728005545233 152.41499264947555, 766.712585401286 152.32996558574757, 864.7487821068154 152.4848348452412 M864.1445828856384 152.069442859939 C865.7214169481049 161.9253713429022, 865.6143288340097 173.2510419194873, 865.309621065524 183.41131625426027 M864.5988684753348 152.55319549487143 C865.459156441047 160.88570085806018, 864.7820509898262 169.2596639089784, 865.0941867663631 182.3937300318238 M864.4222914443467 182.14771518345188 C790.3566866612919 182.84170674242606, 715.886953813244 181.64744264814934, 639.7238095325691 182.68410495284482 M864.6015383499954 182.5607323330128 C793.9928715101148 182.36153805515747, 722.5378654926747 182.08418252435195, 639.8409053308047 182.16709567097206 M639.5291949000057 183.31589809752154 C639.2552309897067 174.60206382092645, 639.8323707486123 164.7169451515633, 639.3923859287002 152.5645696369643 M639.9092669924383 182.62844280251184 C639.6040173033149 174.97599144324371, 639.8237412892256 168.39927558641728, 640.186654296445 152.4362712668921" stroke="rgb(0, 0, 0)" stroke-width="1.5" fill="none"/></g><g class="text-container" transform="matrix(1.5, 0, 0, 1.5, 752.5, 157)"><text font-family="'Arial'" font-size="12px" font-style="normal" font-weight="normal" text-decoration="none" text-anchor="middle" fill="rgb(0,0,0)" fill-opacity="1" dy="0.9166666666666666em" transform="" style="font-style: normal;font-weight: 400;font-size: 12px;font-family: Comic Sans MS, cursive;" stroke="none" stroke-width="1px">M.A.X. Packet</text></g><g><path d="M943.1190276358362 213.22033032088615 L1167.8990939852467 212.10638784614787 L1167.7183309531513 241.54744711006762 L942.5961122203604 243.29291940167965 L942.9652879295871 211.77898862908015" stroke="none" stroke-width="0" fill="rgba(255, 255, 255, 0)"/><path d="M943.7792964268131 212.26198058697642 M943.117299900049 212.69579772992006 C993.7637902216615 212.4453358985257, 1044.6302448238953 213.32031235711068, 1168.3362729448875 211.75287881493495 M1167.0327968534355 212.6158005545331 C1168.3910456145704 221.33021827584946, 1168.8044063059513 230.1774635228827, 1168.2009864922177 242.27274218560763 M1168.6031459500975 243.20871315560092 C1106.9919645780126 241.01981530336482, 1045.9567111711451 241.10126071711886, 942.4431695332901 241.74420822711082 M942.3568821253918 241.78815651005996 C942.3022476244939 236.9918804237581, 943.1240248754532 230.50485592745778, 942.6228489296824 213.47534806193062" stroke="rgb(0, 0, 0)" stroke-width="1.5" fill="none"/></g><g class="text-container" transform="matrix(1.5, 0, 0, 1.5, 1055.5, 217)"><text font-family="'Arial'" font-size="12px" font-style="normal" font-weight="normal" text-decoration="none" text-anchor="middle" fill="rgb(0,0,0)" fill-opacity="1" dy="0.9166666666666666em" transform="" style="font-style: normal;font-weight: 400;font-size: 12px;font-family: Comic Sans MS, cursive;" stroke="none" stroke-width="1px">CRC16 (2 bytes)</text></g><g><path d="M640.7569165236679 243.27844177338642 L864.0002971855653 242.80923984003192 L864.3041780790486 272.28997990955975 L640.5731612219262 273.04618953097565 L639.016215345946 242.09945674388533" stroke="none" stroke-width="0" fill="rgba(255, 255, 255, 0)"/><path d="M639.7727266646491 242.05295368585172 M639.4600023463585 242.56936807649114 C699.0163937735186 243.10931802101547, 756.3165424510485 243.61506819697732, 865.7045189445781 242.5187551323444 M864.7424931619721 242.85891502089976 C864.4790128777412 251.68272426013607, 864.3551337804333 258.2906211952993, 865.7731624059841 273.1779108518241 M864.3781256989644 271.8461260993199 C776.3375610151893 273.8279139433646, 688.6169347647259 273.96469175667374, 639.4151890708068 271.9249815707203 M640.2952697145356 272.3187554787066 C640.1409649758745 265.7653797952017, 639.343635822251 258.8811225641219, 639.0420498123117 242.34751926219434" stroke="rgb(0, 0, 0)" stroke-width="1.5" fill="none"/></g><g class="text-container" transform="matrix(1.5, 0, 0, 1.5, 752.5, 247)"><text font-family="'Arial'" font-size="12px" font-style="normal" font-weight="normal" text-decoration="none" text-anchor="middle" fill="rgb(0,0,0)" fill-opacity="1" dy="0.9166666666666666em" transform="" style="font-style: normal;font-weight: 400;font-size: 12px;font-family: Comic Sans MS, cursive;" stroke="none" stroke-width="1px">Packet Length (2 bytes)</text></g><g><path d="M639.4277821579062 272.2619657293157 L865.495381828536 272.4269734896823 L865.4735184211307 303.24328451424003 L640.8694307890735 303.21099166361216 L640.903453017328 273.14952450903894" stroke="none" stroke-width="0" fill="rgba(255, 255, 255, 0)"/><path d="M640.0407684987631 272.4021613472343 M640.2552845008053 273.214953038007 C703.0112879394906 272.94768456610706, 767.0558611075688 273.4707879858107, 865.0270897381695 272.7444851251154 M639.976369971816 272.34181303711927 C707.0147166185224 271.96772658997435, 774.031684611471 272.1640115326316, 864.6600838000529 272.66625550327285 M864.0517195447409 272.1298137258463 C865.6690786168044 283.2742671165163, 864.2965298460717 292.5524231534751, 865.4250125512808 301.55750560093037 M864.7544155376336 272.78943090529725 C865.2755633042489 281.19370294704703, 865.4749486611863 290.39122709660637, 865.2246425499944 302.54439837865186 M865.1919476659483 303.04769845739366 C814.2800421671943 301.5512086132888, 764.5104625486914 301.2375428219153, 640.5503249457383 303.3523472282761 M865.2871478919812 302.2755751039376 C816.0564081001244 302.97647245234117, 766.2823166631032 302.4949578978008, 639.7628260252894 302.7301090751437 M639.8222049309246 303.02683470779687 C639.7155144852617 293.0977485047942, 639.2415121377833 281.82809506743183, 639.4322821564973 272.5002892448875 M639.5219622435861 302.4434735058999 C639.4223887834703 293.14681260709835, 639.4485203306893 284.3519511652213, 639.7690829367452 272.47556760667106" stroke="rgb(0, 0, 0)" stroke-width="1.5" fill="none"/></g><g class="text-container" transform="matrix(1.5, 0, 0, 1.5, 752.5, 277)"><text font-family="'Arial'" font-size="12px" font-style="normal" font-weight="normal" text-decoration="none" text-anchor="middle" fill="rgb(0,0,0)" fill-opacity="1" dy="0.9166666666666666em" transform="" style="font-style: normal;font-weight: 400;font-size: 12px;font-family: Comic Sans MS, cursive;" stroke="none" stroke-width="1px">Packet Data (0-550 bytes)</text></g><g><path d="M33.28776494349118 211.78923335838957 L258.21471402546507 213.26910550570824 L258.2663225083968 242.90048150499862 L32.28065001071496 243.0046352380441 L33.277464341359185 213.1018545853972" stroke="none" stroke-width="0" fill="rgba(255, 255, 255, 0)"/><path d="M32.652904666493356 212.3818648351227 M32.095329904991836 212.14366031778033 C81.03752177058892 211.36796355956272, 130.28707931221248 211.6414232542667, 257.14494009902415 211.68938326171894 M257.6162505836242 211.62278806262867 C257.1017165083642 221.13983460751336, 257.4756521367862 228.6636988838633, 256.77932751335607 243.49859926758293 M257.68644281221975 242.79752291068345 C196.45084471872073 242.90420675746566, 135.31714429958953 243.69619224229976, 32.75428507332673 242.2527780416984 M31.805558109989267 243.23685301486069 C32.132740156855135 235.52693913853548, 32.11340079395551 230.1590866566539, 32.15960000529494 212.5579426382329" stroke="rgb(0, 0, 0)" stroke-width="1.5" fill="none"/></g><g class="text-container" transform="matrix(1.5, 0, 0, 1.5, 145, 217)"><text font-family="'Arial'" font-size="12px" font-style="normal" font-weight="normal" text-decoration="none" text-anchor="middle" fill="rgb(0,0,0)" fill-opacity="1" dy="0.9166666666666666em" transform="" style="font-style: normal;font-weight: 400;font-size: 12px;font-family: Comic Sans MS, cursive;" stroke="none" stroke-width="1px">Packet Number (1 byte)</text></g><g><path d="M31.805881732802106 181.9993595951934 L256.76157913020137 182.84031126090557 L257.7806736868325 212.7128627615209 L32.82686926648451 211.88118707041912 L32.6614883073156 181.54799226331554" stroke="none" stroke-width="0" fill="rgb(210, 222, 238)"/><path d="M32.50715198183293 182.23157785481072 M32.68140393242252 182.4368704072334 C101.91096156117243 183.1248708206425, 169.9528481311611 182.35868641269866, 257.44998842207036 183.13570261453404 M32.2560633759197 182.4094311207507 C120.26483929156558 182.2466125292438, 209.10226501746303 181.96961300881173, 257.84782403207686 182.39167279253957 M256.8130341167194 182.50432373599492 C256.7575077040624 188.9044276519387, 258.42062710853315 195.54733383557408, 257.2632210606534 212.17658019076336 M257.10230817247003 182.7138066781911 C257.9152884632297 192.57737022032558, 257.04416421444756 202.04472622452874, 257.38560615809723 212.3932006360639 M257.5576598656265 212.33476095157295 C174.0537748125207 212.83219725288606, 91.53790110730185 213.57510736681746, 32.119396414096315 213.1681845378799 M257.80794150581085 212.26418210814697 C172.46086562388905 213.10054953866188, 87.45092824989224 213.30824519100386, 32.41307749406674 212.32376045444 M32.537617210727824 212.90848561641903 C31.81719513256933 204.52405810149673, 33.175334946383316 196.81613899878076, 32.01139251888388 181.55233401175127 M32.01641644409233 212.78126895521683 C32.20631850722013 205.88420668504347, 32.673016398325984 199.9575467481493, 32.337632005982975 182.40668114639445" stroke="rgb(0, 0, 0)" stroke-width="1.5" fill="none"/></g><g class="text-container" transform="matrix(1.5, 0, 0, 1.5, 145, 187)"><text font-family="'Arial'" font-size="12px" font-style="normal" font-weight="normal" text-decoration="none" text-anchor="middle" fill="rgb(0,0,0)" fill-opacity="1" dy="0.9166666666666666em" transform="" style="font-style: normal;font-weight: 400;font-size: 12px;font-family: Comic Sans MS, cursive;" stroke="none" stroke-width="1px">Modem Packet</text></g><g><path d="M32.46577312969695 241.80034719776046 L258.1256763990483 241.9177695843755 L257.44435866813905 273.38851071509623 L33.24993815971 271.7756707181275 L33.28891053100363 242.33028921912452" stroke="none" stroke-width="0" fill="rgba(255, 255, 255, 0)"/><path d="M33.37466936530176 241.77537134190348 M32.23406348511682 242.7336175277602 C111.2141534659861 243.00992721672628, 188.84593174465383 242.26162252929012, 257.05584504845467 242.36840191010842 M32.51850167513184 242.4325426519788 C110.92006238993002 241.83519532563832, 189.15072346779738 242.1132075489178, 257.69539223835454 242.6445062484532 M256.8386602582101 242.78100070765294 C257.194424186864 248.61410436604868, 257.6843182550158 254.06918343004904, 257.60717455940744 272.54672814039526 M257.6391818649354 242.5084099991513 C257.6392346488178 249.79329128547616, 257.2085697321984 257.9090452877889, 257.31879464570943 272.70164397506545 M257.8057295414001 272.9014168354682 C209.95733308005492 273.6655518579494, 160.6210384961362 273.17444475498587, 33.297303050892 272.2841842463039 M257.43822533736795 272.0916018910824 C207.4826320255523 272.6380647455882, 157.84167601055682 272.38397493736994, 32.86070412012493 272.0856502046925 M32.4942224001649 273.30792980238147 C32.26096635265002 263.4741741714797, 31.96904683713536 254.88626951816747, 32.540137217706736 242.0097206798261 M32.98995574076863 272.2521748355766 C32.517929484393306 262.9785031609104, 31.95957438993537 254.4184080098865, 32.33533030421627 242.66844283178642" stroke="rgb(0, 0, 0)" stroke-width="1.5" fill="none"/></g><g class="text-container" transform="matrix(1.5, 0, 0, 1.5, 145, 247)"><text font-family="'Arial'" font-size="12px" font-style="normal" font-weight="normal" text-decoration="none" text-anchor="middle" fill="rgb(0,0,0)" fill-opacity="1" dy="0.9166666666666666em" transform="" style="font-style: normal;font-weight: 400;font-size: 12px;font-family: Comic Sans MS, cursive;" stroke="none" stroke-width="1px">Packet Length (2 bytes)</text></g><g><path d="M32.85116169410225 273.0943793748278 L258.0422619784018 272.872638026091 L257.6711757277997 303.1189898467936 L32.123846380742684 302.3496322237231 L32.44791047486011 272.31967063345417" stroke="none" stroke-width="0" fill="rgba(255, 255, 255, 0)"/><path d="M32.49738121759777 272.0510916192733 M32.522993425650505 272.6678868730444 C113.76756866607023 273.05177764446125, 196.39164421669204 273.3393743161862, 257.6944671329757 272.1094704986732 M256.7793397957378 272.76826235570115 C257.49030831048293 284.73091212806514, 258.538783523197 295.3279362144691, 257.18710641411207 302.49815234194983 M257.43141299723646 302.11875653700395 C168.49530012261795 302.3545577304588, 80.95656263886926 301.9397846336336, 32.38997799087847 301.98583480967136 M32.61046194499984 302.94122766451886 C31.676325497483717 292.5501908641207, 32.49331265446116 282.9333599146175, 33.08711057864099 273.48722595671586" stroke="rgb(0, 0, 0)" stroke-width="1.5" fill="none"/></g><g class="text-container" transform="matrix(1.5, 0, 0, 1.5, 145, 277)"><text font-family="'Arial'" font-size="12px" font-style="normal" font-weight="normal" text-decoration="none" text-anchor="middle" fill="rgb(0,0,0)" fill-opacity="1" dy="0.9166666666666666em" transform="" style="font-style: normal;font-weight: 400;font-size: 12px;font-family: Comic Sans MS, cursive;" stroke="none" stroke-width="1px">M.A.X. Packet</text></g><g><path d="M31.802836278680058 303.2905901510354 L256.83545667398903 302.9247130939935 L258.0693598188046 332.97003939744405 L32.116000367587034 333.40905210765044 L32.412615588503556 302.2995142232002" stroke="none" stroke-width="0" fill="rgba(255, 255, 255, 0)"/><path d="M32.04647093603817 302.89383324222047 M31.91308246774125 302.10990685342915 C104.17815752434544 302.8930229686614, 175.56876866438836 302.45773289503427, 258.1438315268828 302.8729327488573 M257.59934431793897 301.96992608956907 C258.3648668588717 311.7100176784042, 256.8412153589589 320.7747057050607, 257.46864196437804 332.700023432933 M256.76571331594255 331.6681249413984 C168.72117541291163 332.2428174574721, 78.744825154992 331.82566398147134, 32.93919770779729 332.7243895083682 M32.46069779194246 332.1424162029626 C33.142332192156395 322.4996375715628, 33.04276235858139 312.53322416549224, 33.17130902728639 302.10904609263156" stroke="rgb(0, 0, 0)" stroke-width="1.5" fill="none"/></g><g class="text-container" transform="matrix(1.5, 0, 0, 1.5, 145, 307)"><text font-family="'Arial'" font-size="12px" font-style="normal" font-weight="normal" text-decoration="none" text-anchor="middle" fill="rgb(0,0,0)" fill-opacity="1" dy="0.9166666666666666em" transform="" style="font-style: normal;font-weight: 400;font-size: 12px;font-family: Comic Sans MS, cursive;" stroke="none" stroke-width="1px">CRC16 (2 bytes)</text></g></svg>