<?xml version="1.0" standalone="no"?>
<!DOCTYPE svg PUBLIC "-//W3C//DTD SVG 20010904//EN"
 "http://www.w3.org/TR/2001/REC-SVG-20010904/DTD/svg10.dtd">
<svg version="1.0" xmlns="http://www.w3.org/2000/svg"
 width="640.000000pt" height="640.000000pt" viewBox="0 0 640.000000 640.000000"
 preserveAspectRatio="xMidYMid meet">
<metadata>
Created by potrace 1.11, written by Peter Selinger 2001-2013
</metadata>
<g transform="translate(0.000000,640.000000) scale(0.100000,-0.100000)"
fill="#000000" stroke="none">
<path d="M523 4911 c-35 -37 -63 -74 -63 -82 0 -9 -13 -28 -30 -44 -16 -16
-30 -36 -30 -45 0 -9 -9 -25 -20 -35 -11 -10 -17 -22 -14 -27 3 -5 -4 -20 -16
-33 -12 -13 -20 -28 -16 -33 3 -5 -10 -24 -29 -42 -19 -19 -35 -41 -35 -51 0
-9 -7 -22 -15 -29 -8 -7 -15 -20 -15 -30 0 -10 -7 -23 -15 -30 -8 -7 -15 -21
-15 -32 0 -11 -13 -31 -30 -45 -17 -14 -30 -34 -30 -48 0 -12 -7 -25 -15 -29
-8 -3 -15 -16 -15 -28 -1 -13 -14 -34 -30 -48 -17 -13 -30 -34 -30 -46 0 -12
-7 -24 -15 -28 -8 -3 -15 -17 -15 -31 0 -16 -6 -25 -15 -25 -12 0 -15 -15 -15
-75 0 -58 3 -75 14 -75 9 0 16 -12 18 -27 2 -21 9 -29 28 -31 13 -2 29 -10 35
-18 7 -10 43 -14 140 -16 l130 -3 3 -35 c2 -19 9 -40 17 -45 7 -6 15 -22 17
-35 2 -18 10 -26 28 -28 13 -2 29 -10 35 -18 7 -10 43 -14 135 -16 l125 -3 2
-965 c3 -815 5 -967 17 -975 8 -6 16 -22 18 -35 2 -18 10 -26 28 -28 14 -2 29
-10 33 -18 6 -11 37 -14 142 -14 l135 0 0 -39 c0 -25 5 -41 15 -45 8 -3 15
-17 15 -31 0 -20 5 -25 26 -25 17 0 28 -6 31 -20 5 -20 14 -20 483 -20 469 0
478 0 483 20 3 14 14 20 31 20 21 0 26 5 26 25 0 14 7 28 15 31 13 5 15 37 15
200 0 117 4 194 10 194 17 0 60 -51 60 -71 0 -11 7 -22 15 -25 8 -4 15 -17 15
-30 0 -14 7 -27 15 -30 8 -4 15 -16 15 -28 0 -28 69 -96 97 -96 11 0 23 -7 27
-15 4 -12 26 -15 104 -15 90 0 100 -2 120 -23 12 -13 22 -30 22 -38 0 -23 63
-79 89 -79 14 0 25 -7 28 -20 5 -20 14 -20 543 -20 529 0 538 0 543 20 3 14
14 20 31 20 21 0 26 5 26 25 0 14 7 28 15 31 11 5 15 23 15 70 0 48 -4 66 -15
70 -8 4 -15 17 -15 30 0 14 -7 27 -15 30 -8 4 -15 17 -15 30 0 14 -7 27 -15
30 -8 4 -15 17 -15 29 0 14 -13 34 -30 48 -16 14 -30 35 -30 47 0 11 -7 23
-15 26 -8 4 -15 16 -15 29 0 12 -7 28 -15 35 -8 7 -15 20 -15 30 0 9 -9 25
-20 35 -11 10 -17 22 -14 27 3 5 -4 20 -16 33 -43 45 8 99 54 56 12 -12 29
-21 38 -21 9 0 21 -7 28 -15 7 -8 28 -15 46 -15 20 0 34 -5 35 -12 1 -7 2 -18
3 -24 0 -6 16 -25 34 -43 17 -18 32 -39 32 -47 0 -9 7 -22 15 -30 8 -9 15 -24
15 -34 0 -10 13 -30 30 -43 17 -14 30 -35 30 -47 0 -11 7 -23 15 -26 8 -4 15
-17 15 -30 0 -14 7 -27 15 -30 8 -4 15 -16 15 -28 0 -28 69 -96 97 -96 11 0
23 -7 27 -15 4 -12 25 -15 103 -15 85 0 100 -3 119 -21 12 -12 20 -27 17 -34
-6 -16 75 -91 93 -87 7 1 19 -6 26 -18 13 -20 21 -20 485 -20 l472 0 22 30
c23 30 52 43 123 55 81 14 116 36 191 121 40 46 87 111 104 145 17 34 49 83
70 108 21 25 53 75 71 111 18 36 42 79 55 95 28 39 80 142 111 224 23 62 24
71 24 342 -1 225 -3 280 -14 286 -8 4 -16 19 -18 33 -2 18 -10 26 -28 28 -14
2 -29 10 -33 18 -7 12 -105 14 -622 14 -567 0 -616 1 -635 17 -11 10 -20 27
-20 38 -1 11 -14 31 -30 45 -18 14 -30 34 -30 47 0 13 -7 26 -15 29 -8 4 -15
17 -15 30 0 14 -7 27 -15 30 -8 4 -15 16 -15 28 0 12 -13 33 -30 46 -16 14
-29 35 -30 48 0 12 -7 25 -15 28 -8 4 -15 17 -15 30 0 14 -7 27 -15 30 -8 4
-15 16 -15 28 0 12 -13 33 -30 46 -16 14 -29 34 -30 45 0 11 -9 28 -20 38 -12
10 -18 22 -14 28 3 6 -10 26 -30 45 -20 20 -34 40 -30 45 3 6 -4 20 -16 31
-12 11 -19 26 -16 33 2 7 -4 21 -15 31 -11 10 -18 23 -15 30 2 6 -11 27 -30
45 -19 18 -34 40 -34 50 0 9 -7 22 -15 29 -8 7 -15 20 -15 30 0 10 -7 23 -15
30 -8 7 -15 20 -15 29 0 10 -13 30 -30 46 -16 16 -30 36 -30 46 0 9 -7 22 -15
29 -8 7 -15 20 -15 30 0 10 -13 30 -30 43 -16 14 -30 35 -30 47 0 11 -7 23
-15 26 -8 4 -15 16 -15 29 0 12 -7 28 -15 35 -8 7 -15 22 -15 34 -1 11 -14 32
-30 46 -17 13 -30 34 -30 46 0 12 -7 24 -15 28 -8 3 -15 16 -15 30 0 13 -7 26
-15 30 -8 3 -15 14 -15 25 0 26 -65 91 -91 91 -11 0 -22 7 -25 15 -5 12 -26
15 -101 15 -90 0 -97 2 -119 26 -13 14 -24 32 -24 41 0 23 -74 93 -99 93 -12
0 -21 6 -21 15 0 13 -62 15 -500 15 -427 0 -500 -2 -500 -14 0 -9 -12 -16 -27
-18 -21 -2 -29 -9 -31 -28 -2 -14 -10 -29 -18 -33 -12 -7 -14 -61 -14 -307 0
-260 -2 -300 -15 -300 -22 0 -55 37 -55 60 0 11 -7 23 -15 26 -8 4 -15 16 -15
29 0 12 -7 28 -15 35 -8 7 -15 22 -15 34 0 12 -12 29 -30 41 -19 12 -30 29
-30 43 0 12 -7 25 -15 28 -8 4 -15 17 -15 30 0 14 -7 27 -15 30 -8 4 -15 16
-15 28 0 28 -69 96 -97 96 -11 0 -23 7 -27 15 -4 12 -25 15 -97 15 -85 0 -93
2 -115 26 -13 14 -24 32 -24 41 0 23 -74 93 -99 93 -12 0 -21 6 -21 15 0 13
-75 15 -617 14 l-618 -1 -62 -67z m1230 -37 c23 -4 42 -15 49 -28 6 -11 22
-29 36 -40 13 -11 31 -34 38 -52 8 -18 23 -38 35 -44 11 -6 19 -19 18 -28 -3
-32 1 -42 16 -42 10 0 15 -11 15 -35 0 -24 5 -35 15 -35 8 0 15 -9 15 -19 0
-11 14 -31 30 -44 17 -14 30 -35 30 -46 0 -11 9 -25 20 -31 11 -6 17 -16 14
-25 -3 -8 4 -26 15 -41 12 -15 21 -33 21 -40 0 -7 13 -23 29 -35 25 -18 29
-27 24 -50 -4 -22 -2 -29 11 -29 9 0 17 -8 17 -17 3 -43 5 -48 17 -45 7 1 15
-5 18 -13 4 -8 12 -15 20 -15 10 0 13 -7 8 -26 -5 -20 -2 -26 14 -30 15 -4 19
-13 18 -37 0 -20 4 -31 11 -30 14 3 27 -32 18 -48 -4 -6 2 -13 14 -16 12 -3
21 -9 21 -14 0 -5 7 -9 15 -9 8 0 15 -7 15 -16 0 -11 -6 -14 -22 -9 -22 6 -22
6 2 -14 14 -11 31 -21 38 -21 6 0 12 -7 12 -16 0 -11 -6 -14 -22 -9 -21 6 -22
5 -5 -8 9 -8 17 -19 17 -24 0 -6 10 -13 21 -16 17 -5 20 -11 15 -31 -5 -22 -3
-26 14 -26 11 0 20 -4 20 -10 0 -5 7 -10 15 -10 8 0 15 -7 15 -16 0 -11 -6
-14 -20 -9 -11 4 -20 2 -20 -4 0 -6 7 -11 15 -11 8 0 15 -6 15 -14 0 -7 10
-16 21 -19 17 -5 20 -11 17 -31 -4 -18 -1 -26 8 -26 16 0 54 -31 54 -43 0 -5
-7 -7 -15 -3 -27 10 -16 -9 15 -28 21 -12 29 -23 25 -35 -3 -11 4 -26 20 -41
14 -13 25 -29 25 -35 0 -6 11 -22 25 -35 14 -13 24 -31 23 -40 -2 -9 7 -29 20
-44 12 -16 22 -34 22 -41 0 -7 11 -20 25 -29 27 -18 35 -49 10 -40 -8 4 -15 1
-15 -5 0 -6 7 -11 15 -11 8 0 15 -4 15 -10 0 -5 7 -10 15 -10 8 0 15 -7 15
-16 0 -14 -3 -14 -15 -4 -12 10 -15 10 -15 -4 0 -9 7 -16 15 -16 8 0 15 -7 15
-15 0 -8 7 -15 15 -15 8 0 17 -11 21 -25 3 -14 19 -34 35 -45 18 -13 26 -26
22 -36 -3 -9 3 -21 15 -30 13 -9 18 -21 15 -33 -3 -11 4 -28 16 -40 12 -12 21
-27 21 -35 0 -8 13 -24 29 -35 21 -15 27 -27 24 -44 -4 -18 0 -26 16 -30 17
-4 20 -10 15 -36 -5 -24 -3 -31 10 -31 14 0 20 -15 18 -45 -1 -5 13 -17 31
-26 25 -12 32 -22 32 -45 0 -19 5 -29 15 -29 11 0 14 -9 12 -33 -2 -23 1 -32
11 -32 18 0 29 -24 21 -45 -4 -9 0 -15 9 -15 9 0 20 -6 24 -14 4 -8 13 -16 18
-18 6 -2 9 -13 7 -26 -2 -17 3 -25 18 -29 16 -4 20 -11 16 -27 -6 -23 6 -50
20 -44 5 1 10 -7 12 -19 2 -12 10 -27 18 -33 8 -7 14 -20 14 -30 0 -10 14 -30
30 -44 17 -14 30 -31 29 -38 -3 -27 1 -38 16 -38 8 0 15 -7 15 -15 0 -8 -4
-15 -10 -15 -5 0 -10 5 -10 11 0 5 -5 7 -10 4 -12 -8 29 -55 48 -55 7 0 12
-13 12 -30 0 -20 5 -30 15 -30 10 0 15 -10 15 -29 0 -16 4 -31 8 -33 17 -6 22
-55 8 -74 -14 -18 -35 -19 -458 -22 -244 -2 -476 -1 -516 3 -70 7 -73 8 -79
36 -3 16 -12 29 -19 29 -8 0 -14 7 -14 15 0 8 -7 15 -15 15 -10 0 -15 10 -15
28 0 20 -8 31 -33 43 -23 12 -31 23 -30 37 2 13 -5 26 -17 32 -15 8 -18 17
-13 40 4 23 2 30 -10 30 -17 0 -29 23 -22 43 3 6 -10 19 -28 28 -27 14 -32 21
-29 48 2 22 -1 31 -11 31 -18 0 -29 24 -21 45 4 9 0 15 -9 15 -9 0 -20 7 -25
16 -5 9 -13 15 -18 15 -5 0 -9 7 -10 17 -2 37 -5 42 -19 42 -11 0 -14 9 -13
32 2 23 -1 33 -12 33 -10 0 -15 10 -15 30 -1 20 -6 31 -18 33 -9 2 -17 8 -17
13 0 5 -7 9 -15 9 -8 0 -15 7 -15 15 0 18 17 20 22 3 3 -9 6 -9 12 1 5 8 1 14
-13 18 -12 3 -21 9 -21 14 0 5 -7 9 -15 9 -8 0 -15 7 -15 15 0 8 5 15 10 15 6
0 10 -5 10 -11 0 -5 5 -7 10 -4 12 8 -29 55 -47 55 -7 0 -13 5 -13 10 0 6 -7
10 -15 10 -8 0 -15 7 -15 16 0 10 6 14 15 10 8 -3 15 -1 15 4 0 6 -4 10 -10
10 -5 0 -10 14 -10 30 0 17 -4 30 -9 30 -11 0 -41 56 -41 75 0 7 -7 18 -15 25
-8 7 -15 23 -15 37 0 13 -7 26 -15 29 -8 4 -15 14 -15 25 0 10 -16 31 -35 46
-22 17 -35 37 -35 51 0 13 -4 20 -10 17 -16 -10 -10 -301 6 -323 13 -16 14
-16 20 6 3 12 13 22 20 22 22 0 17 -14 -16 -43 -31 -28 -38 -51 -20 -62 11 -7
4 -749 -8 -845 l-7 -55 -70 -8 c-38 -4 -239 -7 -446 -5 -354 3 -378 4 -398 22
-13 12 -20 30 -20 50 1 17 -1 476 -4 1021 -3 721 -8 990 -16 993 -6 2 -11 14
-11 26 0 26 -48 76 -73 76 -10 0 -20 7 -23 15 -5 13 -47 15 -288 15 -154 0
-287 4 -295 9 -7 5 -15 27 -16 50 -2 34 1 41 16 41 14 0 19 7 19 30 0 19 5 29
13 27 7 -1 12 10 12 29 0 23 8 38 27 54 16 12 28 31 28 42 0 12 8 22 20 25 16
4 20 12 18 34 -2 15 1 27 5 26 5 -1 13 6 18 16 6 9 17 17 25 17 8 0 13 4 9 10
-3 5 -13 6 -22 3 -29 -11 -8 20 25 36 25 13 30 21 25 39 -4 18 -1 25 16 29 11
3 21 12 21 19 0 8 7 14 15 14 8 0 15 5 15 11 0 6 -9 8 -21 4 -33 -11 -18 16
19 34 36 18 43 36 11 26 -33 -11 -18 16 19 34 17 9 30 22 27 29 -7 19 5 42 22
42 11 0 14 8 11 31 -4 25 1 35 29 56 18 14 33 34 33 44 0 32 61 79 102 79 13
0 30 5 38 10 17 11 992 6 1053 -6z m1810 0 c52 -5 57 -8 57 -31 0 -16 7 -27
20 -30 11 -3 17 -10 14 -15 -3 -5 3 -12 15 -15 15 -4 21 -13 21 -32 0 -19 8
-29 30 -39 17 -8 30 -21 30 -29 0 -13 -3 -13 -15 -3 -12 10 -15 10 -15 -4 0
-9 7 -16 15 -16 8 0 15 -4 15 -10 0 -5 7 -10 15 -10 8 0 15 -7 15 -15 0 -9 -6
-12 -15 -9 -8 4 -15 1 -15 -5 0 -6 7 -11 16 -11 8 0 12 -5 9 -11 -4 -6 2 -13
14 -16 15 -4 21 -13 21 -32 0 -19 8 -29 30 -39 23 -11 30 -20 30 -42 0 -18 6
-29 18 -32 15 -4 18 -12 14 -37 -3 -24 -1 -31 12 -31 11 0 16 -9 16 -27 0 -21
8 -32 33 -44 27 -14 32 -21 29 -48 -2 -23 1 -31 12 -31 9 0 17 -8 17 -17 3
-43 5 -48 17 -45 7 1 15 -5 18 -13 4 -8 12 -15 20 -15 10 0 13 -7 8 -26 -5
-20 -2 -26 14 -30 14 -4 19 -13 18 -34 0 -16 3 -29 8 -29 14 1 26 -25 20 -44
-4 -13 0 -20 15 -24 12 -3 21 -9 21 -14 0 -5 7 -9 15 -9 8 0 15 -7 15 -16 0
-11 -6 -14 -22 -9 -22 6 -22 6 2 -14 14 -11 31 -21 38 -21 6 0 12 -7 12 -16 0
-11 -6 -14 -20 -9 -11 4 -20 2 -20 -4 0 -6 7 -11 15 -11 8 0 15 -6 15 -14 0
-7 10 -16 21 -19 17 -5 20 -11 15 -31 -5 -22 -3 -26 14 -26 11 0 20 -4 20 -10
0 -5 7 -10 15 -10 8 0 15 -7 15 -16 0 -11 -6 -14 -20 -9 -11 4 -20 2 -20 -4 0
-6 7 -11 15 -11 8 0 15 -6 15 -14 0 -7 9 -16 20 -19 14 -3 20 -14 20 -31 0
-14 4 -26 10 -26 13 0 50 -32 50 -43 0 -5 -7 -7 -15 -3 -26 10 -16 -9 15 -27
31 -19 42 -44 15 -33 -8 3 -15 1 -15 -4 0 -6 5 -10 10 -10 6 0 10 -6 10 -14 0
-7 9 -16 20 -19 13 -3 20 -14 20 -29 0 -16 10 -30 30 -41 17 -10 30 -25 30
-34 0 -13 -3 -13 -15 -3 -8 7 -15 10 -15 6 0 -8 38 -46 48 -47 4 0 6 -13 5
-28 -2 -21 2 -30 17 -34 14 -4 20 -14 20 -34 0 -22 7 -31 30 -41 17 -8 30 -21
30 -29 0 -13 -3 -13 -15 -3 -10 9 -15 9 -15 1 0 -14 36 -51 50 -51 6 0 10 -13
10 -30 0 -16 5 -30 10 -30 19 0 60 -32 54 -42 -3 -5 -12 -4 -20 3 -11 9 -14 8
-14 -5 0 -9 7 -16 15 -16 8 0 15 -4 15 -9 0 -5 8 -11 18 -13 15 -4 18 -12 14
-37 -3 -24 -1 -31 12 -31 11 0 16 -9 16 -27 0 -21 8 -32 33 -44 29 -15 32 -19
29 -57 -4 -45 22 -96 44 -88 10 4 14 -4 14 -29 0 -24 5 -35 15 -35 9 0 15 -9
15 -25 0 -28 35 -69 50 -60 6 4 10 -9 10 -29 0 -20 5 -36 10 -36 6 0 10 9 10
20 0 11 4 20 9 20 4 0 6 -23 3 -50 -4 -41 -2 -50 12 -50 11 0 16 -9 16 -30 0
-20 5 -30 15 -30 8 0 15 -7 15 -15 0 -8 7 -15 15 -15 10 0 15 -10 15 -30 0
-16 5 -30 10 -30 6 0 10 9 10 20 0 11 5 20 11 20 7 0 9 -16 4 -50 -5 -34 -3
-50 4 -50 6 0 11 9 11 20 0 11 5 20 11 20 7 0 9 -16 4 -50 -5 -34 -3 -50 4
-50 6 0 11 9 11 20 0 11 5 20 11 20 8 0 10 -12 6 -35 -5 -33 7 -59 15 -33 3 8
12 4 26 -10 18 -18 21 -29 16 -66 -5 -36 -3 -47 15 -65 19 -19 25 -20 38 -9
14 12 15 9 9 -24 -6 -34 -5 -38 14 -38 16 0 20 -6 20 -30 0 -22 4 -28 16 -23
12 4 14 0 8 -23 -4 -16 -11 -33 -16 -39 -11 -12 -883 -20 -996 -10 -70 7 -73
8 -79 36 -3 16 -12 29 -19 29 -8 0 -14 7 -14 15 0 8 -7 15 -15 15 -10 0 -15
10 -15 28 0 20 -8 31 -33 43 -23 12 -31 23 -30 37 2 13 -5 26 -17 32 -15 8
-18 17 -13 40 4 23 2 30 -10 30 -17 0 -29 23 -22 43 3 6 -10 19 -28 28 -20 10
-31 23 -30 35 1 10 -9 31 -23 47 -13 16 -24 35 -24 43 0 7 -11 21 -25 30 -17
11 -24 22 -20 35 4 12 -1 21 -14 29 -16 8 -19 17 -15 39 5 23 2 29 -16 34 -18
5 -22 11 -18 31 4 18 1 26 -9 26 -7 0 -16 7 -19 15 -4 8 -12 15 -20 15 -8 0
-14 7 -14 16 0 13 3 14 14 5 10 -9 16 -9 21 -1 4 7 -2 14 -14 17 -12 3 -21 9
-21 14 0 5 -7 9 -16 9 -12 0 -14 7 -9 31 6 25 4 31 -14 36 -12 3 -21 9 -21 14
0 5 -7 9 -15 9 -8 0 -15 7 -15 16 0 10 6 14 15 10 8 -3 15 -1 15 4 0 6 -4 10
-10 10 -5 0 -10 13 -10 29 0 16 -6 31 -15 35 -8 3 -15 12 -15 20 0 7 -7 16
-15 20 -8 3 -15 16 -15 30 0 13 -7 27 -16 30 -10 4 -14 14 -11 25 2 11 -3 25
-14 35 -11 9 -19 22 -19 30 0 8 -11 27 -25 42 -14 15 -25 38 -25 50 0 13 -6
24 -12 24 -17 0 -17 -315 -1 -331 8 -8 13 -5 18 10 3 12 13 21 21 21 22 0 17
-14 -16 -43 -31 -28 -38 -55 -19 -74 7 -7 9 -27 5 -55 -4 -23 -8 -61 -9 -83
-2 -33 -6 -41 -24 -43 -31 -5 -139 103 -135 134 2 12 -4 24 -12 27 -9 4 -16
18 -16 34 0 21 -8 32 -33 44 -25 13 -31 21 -29 41 2 18 -2 27 -16 30 -15 4
-18 12 -14 37 3 24 1 31 -12 31 -11 0 -16 9 -16 28 0 20 -8 31 -33 43 -27 14
-32 21 -29 48 2 22 -1 31 -11 31 -18 0 -29 24 -21 45 4 9 0 15 -9 15 -9 0 -20
7 -25 16 -5 9 -13 16 -18 15 -5 0 -8 13 -6 28 2 22 -2 30 -18 34 -16 4 -20 12
-18 34 2 19 -1 27 -10 25 -7 -1 -15 5 -18 13 -4 8 -12 15 -20 15 -10 0 -13 7
-8 24 4 18 1 27 -15 36 -12 6 -21 18 -21 26 0 9 -14 29 -30 44 -24 22 -29 34
-25 53 5 19 2 25 -16 30 -17 5 -21 11 -16 33 3 20 0 28 -14 31 -11 3 -19 9
-19 14 0 5 -7 9 -15 9 -8 0 -15 7 -15 15 0 18 16 20 23 3 3 -8 6 -6 6 5 1 9
-6 17 -14 17 -8 0 -15 5 -15 10 0 6 -7 10 -16 10 -12 0 -14 7 -9 31 6 25 4 31
-14 36 -15 4 -21 13 -21 34 0 19 -5 29 -15 29 -8 0 -15 5 -15 10 0 6 -7 10
-16 10 -13 0 -15 7 -10 31 5 25 2 32 -14 36 -14 4 -20 14 -20 34 0 18 -5 29
-14 29 -17 0 -28 24 -20 45 4 9 0 15 -9 15 -10 0 -16 16 -19 58 -7 75 -1 868
7 893 5 15 16 19 48 19 23 0 49 5 57 10 16 10 703 5 803 -6z m2708 -1951 c10
-11 10 -22 1 -47 -7 -18 -12 -40 -12 -49 0 -9 -7 -17 -15 -17 -8 0 -15 -7 -15
-15 0 -8 -4 -15 -10 -15 -5 0 -10 -4 -10 -10 0 -5 7 -7 15 -4 9 4 15 0 15 -10
0 -9 -7 -16 -15 -16 -8 0 -15 -4 -15 -9 0 -5 -8 -11 -19 -14 -14 -3 -17 -11
-14 -31 4 -18 1 -26 -8 -26 -8 0 -25 -12 -39 -27 -24 -25 -25 -26 -2 -19 16 6
22 3 22 -8 0 -9 -6 -16 -12 -16 -22 -1 -62 -36 -49 -44 6 -4 11 -2 11 3 0 6 5
11 10 11 6 0 10 -7 10 -15 0 -8 -7 -15 -15 -15 -8 0 -15 -4 -15 -9 0 -5 -9
-11 -21 -14 -12 -3 -18 -10 -14 -16 9 -16 -4 -51 -18 -48 -8 1 -11 -10 -11
-30 1 -21 -3 -33 -11 -33 -7 0 -15 -7 -19 -15 -3 -8 -11 -14 -18 -13 -7 2 -13
-6 -14 -17 -2 -40 -4 -45 -20 -45 -13 0 -15 -7 -11 -30 5 -23 2 -32 -14 -40
-13 -8 -18 -17 -14 -29 4 -12 -2 -24 -19 -34 -13 -9 -28 -27 -31 -39 -4 -13
-16 -33 -27 -45 -11 -12 -18 -29 -15 -37 4 -10 -2 -20 -14 -27 -11 -6 -26 -23
-32 -39 -7 -15 -31 -48 -55 -74 -32 -34 -50 -46 -72 -46 -16 0 -32 5 -35 10
-4 6 -16 8 -27 4 -19 -6 -20 -3 -13 35 4 27 3 41 -4 41 -6 0 -11 -12 -11 -26
0 -15 -4 -23 -11 -18 -6 3 -9 15 -6 25 3 12 -2 20 -14 24 -43 14 -14 22 74 21
88 -1 93 0 89 18 -4 16 -1 18 16 14 17 -5 22 -2 22 12 0 10 6 23 14 29 19 16
10 172 -10 184 -8 4 -14 19 -14 32 0 20 -7 25 -35 31 -29 5 -43 1 -73 -20 -21
-14 -42 -26 -48 -26 -36 -2 -82 -81 -107 -185 -3 -15 -5 -13 -6 8 0 15 -8 30
-16 33 -8 4 -15 18 -15 34 0 16 -7 30 -16 34 -10 4 -14 16 -12 38 2 27 0 32
-15 30 -15 -3 -18 2 -15 29 4 37 -18 52 -25 17 -3 -13 -5 -1 -4 27 1 41 -2 50
-17 53 -13 3 -17 10 -13 29 3 19 0 27 -15 31 -12 3 -18 12 -16 26 3 23 -29 66
-49 66 -8 0 -13 12 -13 30 0 17 -4 30 -10 30 -5 0 -10 -9 -10 -21 0 -11 -4
-18 -9 -15 -5 3 -6 26 -3 51 4 37 2 45 -12 45 -11 0 -16 9 -16 30 0 20 -5 30
-15 30 -10 0 -15 11 -15 35 0 24 -5 35 -15 35 -8 0 -15 7 -15 16 0 10 -6 14
-15 10 -10 -3 -15 1 -15 13 0 10 -7 24 -15 31 -18 15 -20 74 -2 88 20 17 77
19 664 19 481 1 564 -1 574 -14z m-4341 -218 c0 -8 -2 -15 -4 -15 -2 0 -6 7
-10 15 -3 8 -1 15 4 15 6 0 10 -7 10 -15z m1820 0 c0 -8 -2 -15 -4 -15 -2 0
-6 7 -10 15 -3 8 -1 15 4 15 6 0 10 -7 10 -15z m1370 -40 c0 -8 -4 -15 -10
-15 -5 0 -10 7 -10 15 0 8 5 15 10 15 6 0 10 -7 10 -15z m-3314 -42 c-11 -11
-19 6 -11 24 8 17 8 17 12 0 3 -10 2 -21 -1 -24z m1820 0 c-11 -11 -19 6 -11
24 8 17 8 17 12 0 3 -10 2 -21 -1 -24z m1524 -18 c0 -8 -4 -15 -10 -15 -5 0
-10 7 -10 15 0 8 5 15 10 15 6 0 10 -7 10 -15z m-180 -16 c0 -5 -4 -9 -10 -9
-5 0 -10 7 -10 16 0 8 5 12 10 9 6 -3 10 -10 10 -16z m297 -201 c-3 -8 -6 -5
-6 6 -1 11 2 17 5 13 3 -3 4 -12 1 -19z m-177 -14 c0 -8 -4 -12 -10 -9 -5 3
-10 10 -10 16 0 5 5 9 10 9 6 0 10 -7 10 -16z m207 -46 c-3 -8 -6 -5 -6 6 -1
11 2 17 5 13 3 -3 4 -12 1 -19z m93 -464 c0 -8 -4 -12 -10 -9 -5 3 -10 10 -10
16 0 5 5 9 10 9 6 0 10 -7 10 -16z"/>
<path d="M938 4469 c-57 -29 -52 -55 27 -136 36 -37 69 -78 72 -92 3 -13 -2
-45 -11 -70 -28 -80 -30 -78 92 -75 59 2 116 8 127 13 72 32 74 32 97 6 12
-14 27 -25 34 -25 7 0 14 -10 16 -22 3 -20 10 -23 61 -26 36 -2 57 1 57 8 0 6
-7 13 -15 16 -8 4 -15 14 -15 23 0 9 -13 31 -30 49 -16 18 -30 40 -30 47 0 19
-36 37 -60 30 -13 -4 -22 1 -30 15 -6 11 -17 20 -24 20 -8 0 -16 6 -19 13 -2
6 -26 18 -51 26 -33 9 -50 21 -56 37 -5 13 -30 45 -55 70 -25 26 -45 50 -45
55 0 12 -60 39 -84 38 -12 -1 -38 -10 -58 -20z"/>
<path d="M1904 4435 c-9 -23 4 -47 23 -43 9 2 20 15 24 31 6 24 5 27 -17 27
-14 0 -27 -7 -30 -15z"/>
<path d="M1981 4404 c0 -11 3 -14 6 -6 3 7 2 16 -1 19 -3 4 -6 -2 -5 -13z"/>
<path d="M2230 4101 c0 -6 5 -13 10 -16 6 -3 10 1 10 9 0 9 -4 16 -10 16 -5 0
-10 -4 -10 -9z"/>
<path d="M1042 4068 c-7 -7 -12 -20 -12 -30 0 -9 -9 -22 -20 -28 -23 -12 -25
-29 -7 -54 24 -33 54 -12 74 50 15 48 15 57 3 65 -20 12 -24 11 -38 -3z"/>
<path d="M1804 4049 c-10 -17 13 -36 27 -22 12 12 4 33 -11 33 -5 0 -12 -5
-16 -11z"/>
<path d="M2265 4041 c-3 -5 -1 -12 5 -16 5 -3 10 1 10 9 0 18 -6 21 -15 7z"/>
<path d="M807 3933 c-8 -7 11 -33 24 -33 5 0 9 9 9 20 0 19 -20 27 -33 13z"/>
<path d="M1920 3908 c0 -24 -53 -56 -85 -51 -24 4 -36 -2 -60 -27 l-29 -31 38
-35 c25 -23 39 -45 40 -62 1 -22 6 -26 31 -27 27 0 30 -4 37 -40 4 -22 7 -59
7 -82 1 -23 6 -45 11 -48 6 -3 10 -22 10 -41 0 -32 2 -34 25 -28 19 5 31 -2
60 -33 19 -21 35 -43 35 -50 0 -7 14 -28 31 -47 21 -24 29 -42 24 -54 -4 -14
0 -21 14 -25 14 -3 22 -17 26 -43 4 -22 13 -58 20 -81 8 -24 11 -59 8 -78 -6
-40 12 -48 41 -16 13 14 26 17 66 13 l49 -4 -1 51 c-1 39 -7 58 -25 77 -13 14
-23 30 -23 36 0 6 -10 8 -25 4 -19 -5 -27 -2 -32 11 -3 10 -13 26 -21 35 -8
10 -12 28 -10 42 4 17 0 26 -12 29 -16 4 -23 24 -34 91 -1 11 -13 24 -27 30
-27 12 -79 60 -79 73 0 5 -16 23 -35 39 -19 16 -35 36 -35 44 0 8 -9 21 -20
28 -24 15 -26 49 -4 73 15 17 19 17 45 3 16 -8 29 -19 29 -24 0 -6 21 -10 47
-10 44 0 50 -3 99 -56 64 -70 84 -69 84 5 0 27 5 53 10 56 15 9 12 47 -5 89
-17 41 -42 57 -55 35 -6 -9 -29 -14 -65 -14 -59 -1 -66 4 -105 80 -17 34 -100
86 -100 63z"/>
<path d="M1356 3781 c-20 -22 -21 -90 -2 -97 19 -7 53 11 66 37 9 16 6 24 -18
49 -28 28 -30 28 -46 11z"/>
<path d="M937 3343 c-14 -13 -6 -30 23 -51 l29 -22 11 20 c17 32 3 60 -29 60
-15 0 -31 -3 -34 -7z"/>
<path d="M890 3310 c0 -19 3 -21 12 -12 9 9 9 15 0 24 -9 9 -12 7 -12 -12z"/>
<path d="M2566 3231 c-4 -7 -5 -15 -2 -18 9 -9 19 4 14 18 -4 11 -6 11 -12 0z"/>
<path d="M1115 2950 c-41 -4 -57 -12 -83 -38 -23 -24 -31 -39 -27 -53 4 -11 0
-31 -9 -44 -20 -30 -21 -85 -3 -85 8 0 24 -8 35 -19 20 -16 22 -29 22 -110 0
-51 -5 -101 -10 -112 -14 -25 7 -97 32 -110 10 -6 25 -27 33 -47 9 -21 25 -42
38 -47 12 -6 24 -19 26 -30 2 -11 10 -25 19 -31 10 -7 17 -33 20 -73 l4 -61
40 0 c29 0 45 -7 62 -25 30 -32 51 -32 72 0 17 26 14 43 -17 86 -10 13 -8 25
7 57 17 38 22 42 57 42 54 0 75 14 87 60 10 37 9 42 -15 68 -18 19 -25 36 -23
57 3 26 -1 30 -25 33 -26 3 -27 5 -21 43 6 35 4 41 -15 46 l-21 5 22 23 c17
17 30 22 49 18 22 -4 27 -2 26 13 -2 13 4 18 16 16 15 -3 18 3 15 30 l-3 33
-70 0 c-67 0 -70 -1 -73 -25 -5 -35 -28 -50 -77 -50 -44 0 -85 30 -85 63 0 10
-8 17 -19 17 -27 0 -45 57 -31 94 5 15 10 45 10 67 0 21 5 39 10 39 16 0 12
24 -7 40 -13 11 -33 14 -68 10z"/>
<path d="M2243 2793 c-16 -34 -16 -43 0 -43 21 0 50 37 44 55 -10 23 -31 18
-44 -12z"/>
<path d="M3020 2730 c0 -5 5 -10 11 -10 5 0 7 5 4 10 -3 6 -8 10 -11 10 -2 0
-4 -4 -4 -10z"/>
<path d="M3050 2670 c0 -5 5 -10 10 -10 6 0 10 5 10 10 0 6 -4 10 -10 10 -5 0
-10 -4 -10 -10z"/>
<path d="M1595 2580 c3 -5 8 -10 11 -10 2 0 4 5 4 10 0 6 -5 10 -11 10 -5 0
-7 -4 -4 -10z"/>
<path d="M3140 2520 c0 -5 5 -10 10 -10 6 0 10 5 10 10 0 6 -4 10 -10 10 -5 0
-10 -4 -10 -10z"/>
<path d="M2150 2344 c0 -8 5 -12 10 -9 6 4 8 11 5 16 -9 14 -15 11 -15 -7z"/>
<path d="M3265 2311 c-3 -5 -1 -12 5 -16 5 -3 10 1 10 9 0 18 -6 21 -15 7z"/>
<path d="M2180 2284 c0 -8 5 -12 10 -9 6 4 8 11 5 16 -9 14 -15 11 -15 -7z"/>
<path d="M3295 2251 c-3 -5 -1 -12 5 -16 5 -3 10 1 10 9 0 18 -6 21 -15 7z"/>
<path d="M2270 2130 c0 -5 5 -10 10 -10 6 0 10 5 10 10 0 6 -4 10 -10 10 -5 0
-10 -4 -10 -10z"/>
<path d="M2675 2061 c-24 -5 -31 -12 -33 -35 -3 -23 6 -38 43 -76 26 -26 52
-58 59 -70 6 -13 18 -27 27 -33 25 -15 85 0 96 25 8 18 2 29 -39 71 -26 28
-48 56 -48 62 0 17 -47 65 -62 64 -7 -1 -26 -4 -43 -8z"/>
<path d="M2360 1980 c0 -5 5 -10 10 -10 6 0 10 5 10 10 0 6 -4 10 -10 10 -5 0
-10 -4 -10 -10z"/>
<path d="M2390 1920 c0 -5 5 -10 10 -10 6 0 10 5 10 10 0 6 -4 10 -10 10 -5 0
-10 -4 -10 -10z"/>
<path d="M3290 1919 c0 -5 5 -7 10 -4 6 3 10 8 10 11 0 2 -4 4 -10 4 -5 0 -10
-5 -10 -11z"/>
<path d="M3003 4774 c-19 -9 -15 -32 7 -44 11 -6 20 -14 20 -19 0 -4 23 -32
50 -61 44 -47 57 -54 100 -60 45 -6 51 -4 68 19 26 36 34 81 15 88 -8 3 -19
16 -24 29 -6 19 -16 24 -42 24 -18 0 -37 4 -42 9 -12 12 -134 23 -152 15z"/>
<path d="M3840 4460 c0 -5 5 -10 10 -10 6 0 10 5 10 10 0 6 -4 10 -10 10 -5 0
-10 -4 -10 -10z"/>
<path d="M3870 4400 c0 -5 5 -10 11 -10 5 0 7 5 4 10 -3 6 -8 10 -11 10 -2 0
-4 -4 -4 -10z"/>
<path d="M3960 4250 c0 -5 5 -10 10 -10 6 0 10 5 10 10 0 6 -4 10 -10 10 -5 0
-10 -4 -10 -10z"/>
<path d="M2917 4193 c-13 -15 -13 -21 -3 -35 17 -23 35 -22 65 1 l24 18 -33
17 c-40 19 -34 20 -53 -1z"/>
<path d="M3725 4135 c-19 -23 -20 -29 -16 -55 2 -16 60 -7 78 12 9 10 23 18
32 18 12 1 8 8 -12 25 -35 31 -56 31 -82 0z"/>
<path d="M4050 4101 c0 -6 5 -13 10 -16 6 -3 10 1 10 9 0 9 -4 16 -10 16 -5 0
-10 -4 -10 -9z"/>
<path d="M4085 4041 c-3 -5 -1 -12 5 -16 5 -3 10 1 10 9 0 18 -6 21 -15 7z"/>
<path d="M3526 3833 c-3 -3 -26 -7 -52 -9 -50 -3 -59 -7 -49 -23 3 -6 17 -8
31 -5 17 5 29 1 37 -11 19 -25 81 -17 85 11 2 14 -5 24 -22 32 -13 6 -27 8
-30 5z"/>
<path d="M2755 3740 c3 -5 8 -10 11 -10 2 0 4 5 4 10 0 6 -5 10 -11 10 -5 0
-7 -4 -4 -10z"/>
<path d="M3467 3393 c-13 -12 -7 -60 8 -73 8 -7 15 -21 15 -32 0 -11 11 -29
25 -40 14 -11 32 -33 40 -48 8 -16 23 -31 34 -35 11 -3 26 -23 35 -45 15 -37
45 -58 66 -45 25 15 1 111 -41 164 -21 26 -25 72 -8 102 8 16 7 25 -7 40 -14
15 -31 19 -89 19 -39 0 -75 -3 -78 -7z"/>
<path d="M4540 3250 c0 -5 5 -10 11 -10 5 0 7 5 4 10 -3 6 -8 10 -11 10 -2 0
-4 -4 -4 -10z"/>
<path d="M4750 2880 c0 -5 5 -10 10 -10 6 0 10 5 10 10 0 6 -4 10 -10 10 -5 0
-10 -4 -10 -10z"/>
<path d="M4230 2857 c0 -22 65 -91 78 -83 26 16 7 62 -35 84 -29 16 -43 15
-43 -1z"/>
<path d="M4415 2810 c-7 -12 12 -40 26 -40 5 0 9 11 9 25 0 25 -23 35 -35 15z"/>
<path d="M3330 2770 c0 -5 5 -10 10 -10 6 0 10 5 10 10 0 6 -4 10 -10 10 -5 0
-10 -4 -10 -10z"/>
<path d="M4840 2731 c0 -6 5 -13 10 -16 6 -3 10 1 10 9 0 9 -4 16 -10 16 -5 0
-10 -4 -10 -9z"/>
<path d="M3360 2710 c0 -5 5 -10 10 -10 6 0 10 5 10 10 0 6 -4 10 -10 10 -5 0
-10 -4 -10 -10z"/>
<path d="M4059 2438 c0 -2 -3 -31 -5 -65 -5 -56 -3 -62 16 -68 15 -5 19 -12
15 -25 -4 -13 2 -24 20 -36 25 -16 27 -16 50 6 14 13 25 31 25 41 0 10 5 21
10 24 17 10 11 71 -8 88 -18 17 -120 45 -123 35z"/>
<path d="M5260 2006 c0 -9 5 -16 10 -16 6 0 10 4 10 9 0 6 -4 13 -10 16 -5 3
-10 -1 -10 -9z"/>
<path d="M4180 1980 c0 -5 5 -10 10 -10 6 0 10 5 10 10 0 6 -4 10 -10 10 -5 0
-10 -4 -10 -10z"/>
<path d="M4210 1920 c0 -5 5 -10 10 -10 6 0 10 5 10 10 0 6 -4 10 -10 10 -5 0
-10 -4 -10 -10z"/>
<path d="M5675 2440 c-3 -5 -17 -10 -29 -10 -15 0 -31 -10 -41 -26 -17 -26
-16 -28 3 -63 18 -31 26 -36 61 -37 l39 -2 4 52 c5 68 -17 119 -37 86z"/>
<path d="M5995 2411 c-3 -5 -1 -12 5 -16 5 -3 10 1 10 9 0 18 -6 21 -15 7z"/>
<path d="M5400 2190 c0 -5 5 -10 10 -10 6 0 10 5 10 10 0 6 -4 10 -10 10 -5 0
-10 -4 -10 -10z"/>
</g>
</svg>
