<svg xmlns="http://www.w3.org/2000/svg" data-v-62dbf6ff="" class="sketchy-canvas visible" width="1002" height="304" xmlns:xlink="http://www.w3.org/1999/xlink"><g><path d="M468.9200210494373 48.65581525606037 M471.55121570179546 50.58079707063626 C493.75370278639286 49.64930594372215, 515.2481197200881 51.27652816512745, 526.5964833484044 50.14108123689315" stroke="rgb(51, 102, 153)" stroke-width="1" fill="none"/></g><g><path d="M527.0788156551047 53.98427130893166 L530.6872967734115 50.32466235091681 L526.0687002541017 48.20759417428253 L527.8317407307247 53.21293131000746" stroke="none" stroke-width="0" fill="rgb(51, 102, 153)"/><path d="M526.108536193169 53.93995492327159 M526.3109154747236 53.47633319947426 C527.6653083902368 53.26332285224264, 528.7265492540583 51.47416793434538, 530.1096502632029 50.05404179391674 M526.5649321089884 53.944689415157946 C528.058189754974 52.26839563861242, 529.2821149328812 51.01586431319924, 530.321871241784 50.25832629822961 M530.482685659854 50.036476376845016 C529.4069824745712 48.73360933243448, 528.1433319281753 48.09500055118194, 526.6346152798377 46.41105752489695 M530.4343664538092 49.78733499377732 C529.7132683464008 49.322629442363684, 528.8879761076805 48.16947077313334, 526.866735578722 46.12433402157259 M526.0423862757175 45.6565220060623 C526.3229872119405 48.48280471874215, 526.4594985100947 49.659041337458405, 526.4392974705446 53.65791667471938 M526.5404141175557 46.56706362633514 C527.057000583283 48.25054478229757, 526.8590728524014 50.31209128582514, 526.7619849387177 53.83573126000993" stroke="rgb(51, 102, 153)" stroke-width="0.75" fill="none"/></g><g><path d="M294.2435418560896 50.02117727553007 M292.93499840116937 51.16888164331957 C318.1105551059568 49.133129621047466, 342.7786365716726 49.48179870528001, 356.62700099551995 48.65780575200773 M294.7593661733875 50.16156679638176 C313.8017250923117 51.135547104375206, 332.47639817254134 51.29454553812914, 359.08419127978914 49.919499767427155" stroke="rgb(51, 102, 153)" stroke-width="1" fill="none"/></g><g><path d="M358.8018617754136 54.42261369910282 L363.1984658645692 49.52542890064489 L358.1775974947972 44.344409714250084 L357.7067900377994 51.75484662342235" stroke="none" stroke-width="0" fill="rgb(51, 102, 153)"/><path d="M357.2227582333128 53.840518249978295 M357.27625594452917 53.6681244785979 C358.5058165840389 52.895529549659656, 359.143514365935 51.79470017981281, 361.37557144590863 50.09641895072464 M361.25881982590766 50.33452431319126 C359.72939211098696 48.779558626358096, 358.5500438775351 47.0835131125806, 357.4480322101108 46.23074133232152 M357.0535759783056 45.945812500509355 C358.29662907712896 48.51415502813421, 357.56288825246924 50.94878293565502, 358.2243256782446 53.54496355989188" stroke="rgb(51, 102, 153)" stroke-width="0.75" fill="none"/></g><g><path d="M126.27679801319256 146.23058429584248 M124.8414199588081 144.95154805949193 C148.31498652411682 143.59591354628958, 169.880091811215 146.75392727590986, 188.2243742162072 146.0244634761975" stroke="rgb(51, 102, 153)" stroke-width="1" fill="none"/></g><g><path d="M187.0977540781659 148.3494702504754 L192.2999642128803 144.18974387525546 L188.3005645765746 140.63442371106305 L186.86040832809726 149.19304331980382" stroke="none" stroke-width="0" fill="rgb(51, 102, 153)"/><path d="M188.92213790239873 149.2694076608427 M188.91805107184277 149.0777121421491 C190.11842871402015 148.1588071188837, 190.70340757075493 146.36379804020964, 192.1058082364837 145.18249848349305 M192.69152842704204 144.6641138671031 C191.6117224326583 144.57996984280564, 191.13184405741117 143.3562471388109, 188.82891192483447 140.84596920146336 M189.02156883673774 141.46816237530987 C188.491526035969 143.58108480209674, 189.15851412051865 146.04630025635325, 188.22740674524104 149.45476839582207" stroke="rgb(51, 102, 153)" stroke-width="0.75" fill="none"/></g><g><path d="M247.9842901711511 76.40805536366905 M248.5747629728404 74.10582875362886 C246.39896403573647 87.86880916927765, 249.56728314074354 97.40544160297871, 247.72239921460266 116.36008762840166 M248.02957699334593 74.67725499882364 C248.24311807449124 85.12474979926031, 247.75705953540398 93.64641202400593, 247.5618840454137 115.73052383536263" stroke="rgb(51, 102, 153)" stroke-width="1" fill="none"/></g><g><path d="M244.35171017577096 114.26817566122801 L248.74872209680592 116.61725782801652 L250.34833653490153 115.67438435480308 L244.99281554951887 114.98062219645779" stroke="none" stroke-width="0" fill="rgb(51, 102, 153)"/><path d="M244.22429526746097 112.74777339837047 M243.89893829908445 115.02063700600516 C244.82655216144673 115.8702869990002, 244.92979700896026 116.85983362957673, 247.828620043509 118.34550684596157 M248.01903770545346 118.9522568658736 C249.3388665213825 116.61647230878754, 250.8289925973471 116.16826222226074, 251.59504956466435 114.66402134913841 M251.4632330141796 114.88596033796505 C248.32586526429466 115.23748895093256, 245.37754909812963 115.1159662888565, 243.9037778599011 114.97210661487559" stroke="rgb(51, 102, 153)" stroke-width="0.75" fill="none"/></g><g><path d="M301.9624989178467 145.32394196714694 M299.7057969253484 144.29331962910018 C314.05011881406546 145.00386129865217, 325.61813889367806 145.61259114365998, 359.3697928680898 146.3507754256528" stroke="rgb(51, 102, 153)" stroke-width="1" fill="none"/></g><g><path d="M359.40221674880524 149.50439616728022 L361.3834945491579 144.4043112730279 L356.68651518397957 140.01073822511472 L359.23278435464056 147.75630315349943" stroke="none" stroke-width="0" fill="rgb(51, 102, 153)"/><path d="M358.5374515469508 148.2592313955416 M357.70459761195605 149.20525379084094 C358.0394585632895 147.97652026268082, 359.08262218127516 147.27744926855038, 360.98024582472965 144.78050355519622 M357.6273384633476 148.55749310815105 C358.88108742307986 147.2300677489294, 360.6015505977577 145.91999512078377, 361.34634704161743 144.79042488570047 M361.4621271499115 144.55138420209065 C360.24988237443546 144.24677131141243, 359.5792600535916 143.14533548786574, 357.94313763517675 141.6789359912046 M361.70944417606825 145.24889531226793 C360.0840432593957 143.66642123803697, 359.11560653937926 142.69691544237725, 357.8208133541998 141.09933769697952 M357.07664955552104 141.19319764680662 C358.0271015150686 142.34051010433143, 357.3703905782414 145.2251770967974, 357.36185096097813 149.11219657986572 M357.97338140764117 141.61842384116304 C357.8524937860743 144.33735399809214, 357.6034659866031 147.26972373723328, 357.586458294598 148.43455860287895" stroke="rgb(51, 102, 153)" stroke-width="0.75" fill="none"/></g><g><path d="M638.8967236278003 49.18191239513805 M639.5135922239883 48.54128135331336 C660.0795303261605 51.49089867133557, 678.307432902159 50.55508288382252, 703.3649367170818 50.18645872844077" stroke="rgb(51, 102, 153)" stroke-width="1" fill="none"/></g><g><path d="M700.199151671264 54.65449182560108 L707.0332860678424 49.636814164346426 L702.2926586682476 46.88462040694626 L703.1488752004988 54.019119576707816" stroke="none" stroke-width="0" fill="rgb(51, 102, 153)"/><path d="M703.0462299132613 55.1711332048717 M702.5766884314454 53.333966934411905 C702.9532130430437 52.969541100220134, 703.9299669976497 52.078964850079046, 705.7583726250975 50.152616511506174 M705.5857043835754 49.94495909880012 C704.2216190646969 48.407626064246266, 703.0750610552212 46.97115077626566, 701.9945685141487 46.70344450131973 M702.5724978002635 46.71539018998537 C701.9506841533499 48.320314926758726, 701.6845656295678 51.91474789119594, 702.1508067841567 54.04521651269283" stroke="rgb(51, 102, 153)" stroke-width="0.75" fill="none"/></g><g><path d="M468.15255419953 144.912930104109 M470.88716377805736 146.84940910614435 C479.846522698997 143.55645272367957, 491.9529441060686 144.03157945653342, 526.8940124713271 143.28621075182136" stroke="rgb(51, 102, 153)" stroke-width="1" fill="none"/></g><g><path d="M526.4101295531968 147.13508902370134 L531.088728126473 146.1327271228977 L528.7115378674712 140.27195603759685 L525.4919739450448 148.07891090494093" stroke="none" stroke-width="0" fill="rgb(51, 102, 153)"/><path d="M525.8353519939013 147.7215034695948 M526.5844779979144 148.72646081549593 C527.7004533403259 147.24108105940783, 528.4737068986834 146.73921159138368, 530.030651811773 145.17412983281466 M530.9541844742249 145.44555083860462 C528.6963899784154 143.64035074301592, 527.519067438391 142.116047642584, 526.7861186949655 141.14459244647168 M526.3049364648066 140.75878703442748 C526.9231797789598 142.74339533239774, 526.8813796247196 144.10939231931428, 527.1136957584292 149.19006640272625" stroke="rgb(51, 102, 153)" stroke-width="0.75" fill="none"/></g><g><path d="M639.2647779501035 146.12120527248413 M637.1822119981314 146.46846345946335 C653.894267507818 146.88311922915744, 670.8519580165231 146.38699489273512, 702.3913787242275 144.52315976201865" stroke="rgb(51, 102, 153)" stroke-width="1" fill="none"/></g><g><path d="M703.362736361351 149.3389317904985 L704.2971763524731 146.9390822260665 L703.4698088702811 140.4784671629649 L701.4652733889911 148.37445151964792" stroke="none" stroke-width="0" fill="rgb(51, 102, 153)"/><path d="M700.5338368417969 148.54766160341737 M702.2670198525866 148.52962549166386 C702.9798169375255 148.23162709324563, 703.8814538532185 146.6041603335618, 705.9875526943225 145.4371090192999 M706.1464378484385 144.9158224321605 C704.8319014812122 144.21438459651134, 703.8703218587543 142.61223605483397, 702.0923484230159 140.9372031497811 M701.5060372452101 141.56783466220057 C702.0471707104962 143.21057347692857, 701.8897774710255 144.75121512925045, 702.1791332665712 149.19661818091495" stroke="rgb(51, 102, 153)" stroke-width="0.75" fill="none"/></g><g><path d="M802.3420254035368 144.2382257063869 M801.7454977153146 144.6627970897752 C826.2402965468249 144.83822807426932, 848.4979228809053 144.0739607107934, 865.0983160217631 144.91787261710968" stroke="rgb(51, 102, 153)" stroke-width="1" fill="none"/></g><g><path d="M865.9542764522574 148.57338180158223 L869.2241983355746 146.21909348555982 L863.097491345969 141.80838616694024 L865.5899207172986 150.2148469390462" stroke="none" stroke-width="0" fill="rgb(51, 102, 153)"/><path d="M865.4532150450126 146.75788493742039 M864.7758239059243 148.4469322606009 C865.7584962108181 147.4006715210174, 866.4261506679619 146.9296820533129, 868.2235417516266 144.80274377448225 M868.1064262015483 144.7271439051637 C866.9030896287417 143.32533947275354, 866.122824229408 142.35172165812313, 864.4000882241604 141.03960771552943 M864.856830186404 141.73396066310622 C864.2020898989628 143.35862027640937, 864.0087224850477 146.61839176026828, 865.3511062975184 149.48258456724977" stroke="rgb(51, 102, 153)" stroke-width="0.75" fill="none"/></g><g><path d="M802.5983965365259 48.04401970238361 M801.2516342115428 51.5789899413153 C845.2339660909006 47.31197018378485, 885.5918152346259 49.17851109013078, 924.8579326350506 51.26968685235666 M922.2727242671801 49.047138872234186 C922.1273585462069 63.556268512390396, 922.8332791231448 78.51702489312343, 923.9002269134859 116.07777568154167" stroke="rgb(51, 102, 153)" stroke-width="1" fill="none"/></g><g><path d="M920.6797685597918 115.53012564119965 L925.3844786383905 116.84921160220625 L926.4513587749803 116.26355826746418 L920.2313123432418 116.6812505444896" stroke="none" stroke-width="0" fill="rgb(51, 102, 153)"/><path d="M918.7605603604525 114.00782625337305 M919.8511890413095 114.40587258660703 C920.654229061077 115.52470376448831, 922.2064791285828 117.49322045045079, 923.0952813940717 118.23339571799367 M919.725031544896 114.93240957929386 C920.4714054873369 115.34459804996479, 921.6063484270567 116.53694436908248, 923.4186625344339 118.6920566366776 M923.5256775362462 118.83320600942689 C923.9839685084414 117.92877928070061, 925.2945915262515 116.44158075610832, 927.4740711014093 114.29043597775518 M923.5459223692388 118.30760055040555 C924.6361976370601 117.50140284638768, 925.6347506855941 116.22041335455013, 927.0968059656178 114.68173176379517 M927.5765163532146 114.9237768183651 C925.4898468599396 115.46335683525231, 922.7535354083607 115.35421502761905, 920.062202052878 114.2788166585933 M927.2995041380219 114.79347826017468 C924.8656799358635 114.77486885348571, 922.5996985941861 114.42801474284516, 919.6498766017004 114.67826041856986" stroke="rgb(51, 102, 153)" stroke-width="0.75" fill="none"/></g><g><path d="M924.7767336949826 168.3050154529744 M923.8464636003382 171.65479558912537 C922.6134627149067 190.27128125219144, 924.9892711724503 209.0290014402718, 922.5396976283051 224.9835481010429" stroke="rgb(51, 102, 153)" stroke-width="1" fill="none"/></g><g><path d="M919.0621996183888 224.54145453726707 L922.7472219987745 225.52275219947438 L927.5083017562424 224.5737323716239 L918.7028062004763 223.75900844869213" stroke="none" stroke-width="0" fill="rgb(51, 102, 153)"/><path d="M921.1116984643012 223.99876335626993 M919.5360078760309 223.8636524299671 C920.0546475281832 224.97422355388005, 921.7501803251902 225.3782468958297, 923.0943621096866 227.93394693233256 M923.1604685878806 227.2735211495258 C924.5192044824098 226.62311082463117, 925.5023371181284 225.77999751743755, 927.6350882409068 223.54898954358396 M927.0780968472201 223.17633718482577 C924.8839310242886 223.2046506920672, 921.4257176670178 224.02003526675395, 920.4668433601611 223.71458388500395" stroke="rgb(51, 102, 153)" stroke-width="0.75" fill="none"/></g><g><path d="M875.688364460209 255.50329034274182 M877.2255907220193 253.55405828493457 C858.1153157061946 253.62779874960935, 842.7391118677054 254.91281594488123, 812.0219480084166 254.10282395608226 M877.1792407706082 253.82701225559026 C852.7596975912038 252.9906277183261, 827.5383869292906 252.93971576236282, 813.3232461976629 253.8741870247423" stroke="rgb(51, 102, 153)" stroke-width="1" fill="none"/></g><g><path d="M814.2312742179989 251.7361004402555 L808.3325823167951 255.35818521158018 L814.8671926654678 259.1433369120704 L814.9036629596256 250.0542719106389" stroke="none" stroke-width="0" fill="rgb(51, 102, 153)"/><path d="M814.0341250153108 250.9970632783005 M813.0525309081489 250.57493790037987 C812.6310650853422 251.2739961308516, 811.8436271245384 252.48184229832222, 809.7183907115333 253.7928621127911 M809.2404750478382 254.04609852545218 C811.3487180580238 255.84971430314428, 812.2046116056406 256.84758909838706, 813.0695401945763 257.8393941308914 M813.4007734621206 258.4740775501188 C813.3650797692737 255.52541742263793, 812.9351811001825 253.42143856132498, 813.0255706942581 249.62268563179856" stroke="rgb(51, 102, 153)" stroke-width="0.75" fill="none"/></g><g><path d="M675.2950164003473 252.82353619900996 M674.4620104458993 253.14699357743427 C683.1544274841882 254.85139622609313, 687.1098471094455 254.7534720753553, 702.7031412996215 252.67416330515272 M676.5474548729834 253.68124903815115 C683.0479583106277 254.50460034030456, 688.978372307969 253.44418750285024, 701.213675800918 254.31688741822438" stroke="rgb(51, 102, 153)" stroke-width="1" fill="none"/></g><g><path d="M755.4053283185951 171.30376814691218 M752.5428266222406 170.5413764597415 C755.1382910099741 182.19992980136908, 754.6110325653755 193.9425142785673, 752.6444010803729 222.34982798263252 M754.8188622901547 170.38177291941247 C754.1286988286665 192.0951408820091, 754.5713004123506 212.87573831479176, 753.5327768393452 224.38627328921993" stroke="rgb(51, 102, 153)" stroke-width="1" fill="none"/></g><g><path d="M750.7653497179111 225.5380975404816 L755.5462399131864 226.01538377687308 L759.2318353810227 225.6189132197014 L749.7941924194797 224.44792512526834" stroke="none" stroke-width="0" fill="rgb(51, 102, 153)"/><path d="M751.5392513017534 225.04737666900766 M750.2650736946711 224.0646946729813 C751.7719081647972 224.27366754872418, 752.015880127157 225.84685534577645, 754.226367954547 227.58358825906822 M754.0810435280117 227.25121405480078 C755.8634246824565 226.51620279754616, 757.1627834690379 224.96458569780316, 758.4583619170456 223.3909455980209 M757.7786090980211 224.00304712181384 C755.6707030126851 223.01210323474254, 753.2149871218115 222.96385007393016, 751.364498219213 223.17116804068286" stroke="rgb(51, 102, 153)" stroke-width="0.75" fill="none"/></g><g><path d="M362.3322476868048 24.189604975111617 L471.9993534495192 24.016821913412336 L468.65490612238625 73.07086855055493 L361.68032940506544 73.09235687935193 L361.0974120895465 24.68060330067144" stroke="none" stroke-width="0" fill="rgb(210, 222, 238)"/><path d="M362.2712741276377 24.83339411786061 M361.93279862923936 25.773415587652554 C407.0252801176838 23.71175832026855, 449.2146554769437 24.867568957730263, 468.9836950620379 23.241468845935778 M471.04373653905753 23.01406513489376 C468.2901054809144 42.47815352060925, 471.94298981920707 55.44869686152683, 470.6555077227405 74.05077857916442 M469.669484870066 76.64941179401619 C432.3180143399926 77.85913220025262, 398.77401773975447 76.61124674054413, 364.9830546279291 74.53916655339 M361.66115605192346 76.88934612129015 C360.7350138631214 58.862942077605844, 361.7877771705913 45.914589185976006, 362.81044514129667 25.02290468552797" stroke="rgb(0, 0, 0)" stroke-width="1" fill="none"/></g><g><path d="M207.67794496361924 23.43181310337971 L302.7968138488305 23.22864348009352 L287.60383885023396 74.58005245648589 L195.67326764295996 75.6222973726838 L205.87758861752218 26.974544481898672" stroke="none" stroke-width="0" fill="rgb(210, 222, 238)"/><path d="M208.67545964481684 23.525959599993634 M207.5060449171663 26.16392235430733 C237.31307124084393 25.12699897575589, 268.24934901085373 24.792670539375507, 299.43184784005075 25.225993253887744 M301.35496081876346 24.746934638334576 C295.2088522045863 41.75957104976099, 291.03607181977895 58.418225666556154, 287.7194891995668 75.70673511008215 M288.11192836595336 73.87808786960439 C268.96876290339515 75.32231059006072, 247.95471271611683 74.07459197152643, 193.81323349157333 73.49777266339574 M195.93274547382447 74.71783121284763 C197.83688278085683 59.41812015891797, 200.3443387880843 45.55215771254019, 206.98187123344246 24.558618529103278" stroke="rgb(0, 0, 0)" stroke-width="1" fill="none"/></g><g><path d="M531.0535005548904 23.37182193027088 L637.6383304426238 23.819126655514612 L637.3128536381175 76.1827736225033 L532.4164211507564 76.57648685131163 L532.4395166291343 24.06735975115098" stroke="none" stroke-width="0" fill="rgb(210, 222, 238)"/><path d="M530.0875596029241 23.56250249321966 M533.1108900329166 25.740886259625963 C554.50011778221 25.25444604947463, 581.6435368098659 25.961213123594426, 638.4882140561105 26.26209712209076 M639.4988081319528 23.688142670273656 C639.7297850881589 39.16255160844197, 639.5653640109027 56.55916279774722, 637.5638654779999 75.5606889873355 M637.7995342037844 74.72738774594771 C615.1573907837487 73.20303839664037, 589.4657604149528 75.13852594204175, 533.0601099833203 76.45549490027241 M531.3007460527131 73.11004749332534 C531.5584838535228 54.94171975452845, 532.1361849847254 37.58199246871018, 533.7383067894849 23.858335277400382" stroke="rgb(0, 0, 0)" stroke-width="1" fill="none"/></g><g><path d="M37.33167610654721 119.81727139314398 L131.0729751320192 120.08752113873402 L118.51592674836533 170.65977880110387 L23.615960757732978 171.6998422172133 L37.98376411121184 118.35062592412149" stroke="none" stroke-width="0" fill="rgb(210, 222, 238)"/><path d="M37.387791205549 119.61326596123034 M39.61436177051575 119.9312327733581 C71.93920325260842 120.54551609571, 106.1254471284569 120.5582144928066, 131.1320478872379 118.80968550730115 M37.49629998857322 120.44522802269096 C64.15010880206367 119.85358065073204, 90.06324356464583 121.46226073724523, 132.61011080409062 119.95058833037945 M133.14288718746283 120.22093726724273 C128.71015724953938 132.7909409363033, 123.11855648350364 149.60717430641532, 120.31245840987808 170.23911682769656 M132.27551100376527 119.00245830624297 C129.00850219222872 130.8953947732648, 126.31938982413624 140.7541761277471, 119.27230991840705 169.8418816607081 M118.05112988669319 171.60177307289607 C91.41832889600182 171.6710513754685, 61.69941764128756 171.0060517635046, 23.456564253656357 168.1451188293521 M118.78840112609643 170.64606877096367 C94.61873370382753 169.88333610899107, 69.0508237773352 170.07462947063888, 24.348244249470927 170.0543703824918 M24.565992635828994 169.32727122992313 C29.593997965372978 155.69339083719302, 32.478669280855094 137.297638159705, 38.56529942442716 120.10817786339148 M24.9862799532058 170.48495773592924 C28.718323950141407 154.08471877507824, 34.02739209588781 138.08915323242843, 37.838208523026445 120.67463207192303" stroke="rgb(0, 0, 0)" stroke-width="1" fill="none"/></g><g><path d="M194.50514855204997 118.67689321528943 L302.3074589422954 120.90959859690061 L302.12043096017493 170.10286090709963 L195.0918287504166 171.44792312855478 L193.71701428560198 119.77116511919193" stroke="none" stroke-width="0" fill="rgb(210, 222, 238)"/><path d="M195.85384683709404 118.46773220931622 M193.74502137391895 120.68200813853763 C222.1596457279624 119.03512964108864, 247.96206780213365 119.66145128995598, 302.9347431121605 119.59445851625743 M194.1044141970163 119.1840707239831 C221.76136419577264 120.0784006556709, 249.5712692892659 118.78954909098876, 301.11581196373146 120.99542567866493 M302.8007442794999 119.10918358667004 C302.42665359979367 140.128117602548, 301.2385533024198 156.61075169205742, 301.9079812330312 169.114568518874 M301.5339495592811 119.32961753233658 C300.8184099118803 133.06391441453073, 301.71124427302595 146.87968893745696, 301.9179660225556 170.7526572406159 M302.28545177009966 171.04662141607403 C267.32215243720316 171.93031663220287, 232.18709434518058 169.7578320594057, 194.8657175709527 169.48748468506344 M300.8607138232732 169.95609962003005 C268.8229226442355 170.22209488902527, 237.16628326577433 170.58322431360597, 194.41850306211376 170.6954330755354 M195.08435880833255 170.64569534063804 C192.84622467241667 157.52277565643223, 193.2430470063145 144.48840983762466, 193.36964786177157 120.98773424631895 M193.61921967625406 169.25876862229626 C193.7542853060345 158.11744078599867, 194.31366463121134 147.206654233402, 193.8143475312289 120.52390399261925" stroke="rgb(0, 0, 0)" stroke-width="1" fill="none"/></g><g><path d="M364.78452886762045 121.56929407938608 L470.6512500471666 120.96135280098726 L468.9477406305449 170.25871090753841 L361.14147710982314 169.26843095583595 L362.0813409087921 119.96328664020757" stroke="none" stroke-width="0" fill="rgb(210, 222, 238)"/><path d="M364.8606274293393 121.83920066911992 M364.3464267076675 121.56381548909464 C396.121350774451 118.67549423785995, 426.7414849990767 121.83767056444175, 471.72818771758375 118.67434703055233 M470.76106420806235 118.2383975823716 C470.8722100930055 131.41520921270725, 471.9956911567055 142.16206864372077, 468.33580353300425 170.47247461291892 M471.19551727892815 169.50816102320746 C436.74494647691984 167.3281921586911, 406.52616509169934 169.78996643836106, 362.9922792701604 168.88503242553656 M361.37447911985765 168.96274669641633 C361.03422152524865 156.5982068208964, 363.30907397383567 144.08983918201093, 364.94768232832774 119.12522970846358" stroke="rgb(0, 0, 0)" stroke-width="1" fill="none"/></g><g><path d="M530.252517255211 120.70739448311822 L640.2454038938534 121.50818172500593 L638.2085280331632 171.44458046418185 L532.1421607501396 171.4198099891771 L533.5988290558612 121.50130376011063" stroke="none" stroke-width="0" fill="rgb(210, 222, 238)"/><path d="M531.6620348278681 120.37085773462455 M532.4158339997911 120.40445747469057 C569.7138149686123 121.06717222801734, 609.3015577491441 120.88617449439121, 638.2508590538076 118.62978114435847 M640.0901465570195 120.86619490726527 C641.0041303588885 133.6275551389033, 639.1231684921718 144.07807826086798, 638.5410598410733 171.95007802555045 M638.7944645672238 168.33839032955956 C599.1314778167083 169.980363195365, 557.0727136436019 170.9602104888843, 532.3933335456388 168.8443735588431 M532.680591423432 170.8256728898569 C530.4169309730313 152.70597327054875, 532.1884266920557 134.61132240843853, 532.509618409394 118.83733280075599" stroke="rgb(0, 0, 0)" stroke-width="1" fill="none"/></g><g><path d="M715.4587148004288 24.24842675906039 L807.3077329515662 26.791133006517047 L794.6357703555789 75.90759146458228 L701.9694670590357 74.06812722456392 L712.7550375401091 24.310194825119613" stroke="none" stroke-width="0" fill="rgb(210, 222, 238)"/><path d="M714.0786624339303 24.863851090310458 M713.4339845529846 26.59953200580003 C747.5203073832951 23.167743063448146, 777.3182754620038 23.158075939884114, 808.7293725581505 23.70781219100547 M809.6263328124398 23.25940149109386 C802.7546708354805 41.64854397488181, 797.9921773424946 56.31090617220107, 795.7278771626296 73.81110481159789 M797.2455733434706 73.89771497620765 C762.9220456404918 72.93404974376102, 734.9855963710297 74.24440204553784, 701.8928015651388 73.49320708987403 M702.8181790719528 76.15126147425916 C705.1625395024561 59.28421418324005, 711.0220733196318 45.50268638149701, 713.9906576863185 24.674058080213555" stroke="rgb(0, 0, 0)" stroke-width="1" fill="none"/></g><g><path d="M869.8135838439503 120.29420912829674 L975.4687490801539 119.23467664359275 L976.0552010257734 169.42261481473446 L869.6717950365198 170.33174206034812 L869.905282314275 118.72224728934907" stroke="none" stroke-width="0" fill="rgb(210, 222, 238)"/><path d="M870.3510130749063 121.09247158412789 M870.5917411207237 120.91006621900273 C894.5821155498709 122.75270386360056, 920.1518805582539 121.648353130519, 975.0586693442051 118.34962195627577 M975.254049017081 118.89557587172821 C976.9490281308505 136.553487499577, 975.3537821062895 150.54719333396233, 975.6951421450422 169.79202846623608 M978.5006540687934 170.33092800418208 C955.3649445671789 170.22870221749264, 935.556595050517 171.9719508578678, 871.6556476607192 168.28316171525907 M868.6443391543371 169.71922030439364 C868.2284927310837 155.83244271735904, 871.2401885298123 144.90533782672804, 870.0142995808344 118.45873577761984" stroke="rgb(0, 0, 0)" stroke-width="1" fill="none"/></g><g><path d="M879.4512621738478 119.02356115076638 L878.0917972649047 169.79629912884172 L968.0023835070072 119.95098312649279 L965.7259496238189 171.17732207598542 L878.2716885002009 118.21887200135977 L878.2691114702881 118.62511645109994" stroke="none" stroke-width="0" fill="rgb(210, 222, 238)"/><path d="M881.5239694081424 120.09233222010072 M879.0795026705788 121.22411113771071 C881.8263336086643 130.1078345013276, 879.1057000098535 143.29282666938235, 878.3024835989814 170.43491644339238 M966.5081247931242 121.51846335240604 M968.9012019683739 120.32589695518506 C965.0092483928387 133.967509741637, 967.9601867183985 151.1595980733736, 966.992518935344 169.61892898566512 M878.0587149171117 119.62220637756249 M880 120 C880 120, 880 120, 880 120" stroke="rgb(0, 0, 0)" stroke-width="1" fill="none"/></g><g><path d="M714.2944142659579 121.86795529279651 L809.183286708167 118.5741303046775 L797.2275824873356 169.3659703613034 L700.636114435083 169.6239938035122 L712.4014062397537 120.88924806744724" stroke="none" stroke-width="0" fill="rgb(210, 222, 238)"/><path d="M713.6961695284579 118.50449866614142 M713.028800573899 121.74410660840763 C735.4285370340517 121.65701149048188, 753.4757267268717 118.33121314759194, 807.1393834909345 121.11140614177584 M807.2735227277469 118.98595238848132 C803.7184569343437 138.88900223450517, 797.5167682797222 159.0594285747949, 794.01967307555 168.28065242682237 M794.8441537276424 170.72798179313327 C769.6435148533151 168.135269018142, 745.9255325846437 170.79948412878744, 700.9442634903563 171.85208082545927 M700.9962911360533 170.45531753096319 C702.7507358329194 156.4045791902235, 708.4304479602837 144.5517502711287, 715.0360304622118 121.98170437413415" stroke="rgb(0, 0, 0)" stroke-width="1" fill="none"/></g><g><path d="M881.0651646488348 230.51877971790248 L975.5073439583559 228.32980057122873 L964.9646726017608 278.6765505778046 L869.9360916286589 278.96717094809964 L882.5184912819998 228.9194908479856" stroke="none" stroke-width="0" fill="rgb(210, 222, 238)"/><path d="M881.0509486569831 229.57322520590765 M882.8174595635148 230.89454180344921 C911.3850116893033 228.43585243303232, 941.9270982802406 228.37607748610827, 977.0442499014499 230.1626742006104 M883.1793071241498 228.10214220647856 C920.3475417782091 228.98874040472313, 955.8617355383361 229.21016334839825, 976.8384115423042 229.22887692641766 M977.865485563984 227.33333120771255 C974.6608146510042 241.1066191928246, 969.681812970915 251.0955736289627, 963.6785069512115 279.6432124282811 M976.414122899107 229.13614760109917 C974.2457793250273 240.34568904140966, 970.3614352879277 250.3123505337272, 963.8260046531869 278.21366945431265 M963.4136656472006 280.8439067890697 C929.175924634003 280.55493342475654, 890.1843466626227 278.9758938790762, 868.5177097650646 277.0384239421631 M963.8985430969328 278.54459420776874 C930.8848633312939 278.6560268954521, 896.9230437247223 278.90521207759406, 869.7702688568362 278.4902282890849 M869.0737180158253 277.41268882873084 C874.7273305118316 264.19277154415107, 877.5752372717249 246.3689577421673, 881.1203589527684 229.6529107473263 M869.7297039482571 278.9216876198246 C874.5747703439008 263.5397510640065, 877.5611468925002 247.4065483314573, 883.4998607857015 228.020669346254" stroke="rgb(0, 0, 0)" stroke-width="1" fill="none"/></g><g><path d="M699.6240233453494 229.71596872949644 L809.2811591324162 228.54074598098086 L806.5204046805924 278.07796206969874 L700.9237688461222 277.0615185010121 L702.4170257920946 229.01039694203058" stroke="none" stroke-width="0" fill="rgb(210, 222, 238)"/><path d="M699.6465405295226 229.50624538892222 M701.3312668510991 227.39959603831767 C726.5029391076722 229.43482864288464, 753.2764127280136 229.59262226648724, 806.6857065096176 229.01524753314868 M806.193760757218 229.21603461364313 C809.5097498804463 246.5160338173502, 808.3313493801865 259.3187575232968, 807.1265873262386 280.9282708195414 M806.7113031634461 277.2966200549454 C770.456976548749 278.1357072198667, 730.8189399991943 278.80224065450676, 702.9606761995198 280.34825796551 M702.9751774819911 277.60727386209743 C700.8362938472513 258.2107158594825, 699.953631805413 241.01382992948726, 701.6690556296303 228.49694869452605" stroke="rgb(0, 0, 0)" stroke-width="1" fill="none"/></g><g><path d="M601.7889810287329 239.69853566288344 L607.7663611596672 232.48676805572293 L623.2843590936517 232.17885747862533 L650.485627404301 230.60877452868297 L672.2691899548846 236.2604186666627 L675.4757551984654 240.78279999039935 L676.1981215771848 267.64764600979066 L669.1296183622625 274.13775560110054 L653.1403834447498 276.45716794374357 L625.7370614990804 276.2981773028907 L606.4208300402057 271.15925993665803 L601.9699318437896 269.9158297001329 L600.958754871381 239.31781101219065" stroke="none" stroke-width="0" fill="rgb(210, 222, 238)"/><path d="M602.0971999428285 237.78840501302255 M601 239 C603.0570636497138 230.2121177683549, 672.5815243217182 230.01762110274, 675.4166800644305 238.00125103450364 M601.5375960643364 239.07194271231862 C605.1139584140552 229.77521249301708, 674.8602058027192 231.19516280790634, 674.7936362335838 239.11699827833849 M675.2616606240828 238.06542077575511 C675.0276632699945 246.32792286150172, 677.4643154941228 254.08901764481377, 676.2299913583136 268.49203479504973 M675.4931886208138 239.51038510784002 C675.8086113152316 249.37362668627478, 676.1974009477599 259.7983197330715, 676.3111541457257 268.90097044525993 M676 269 C672.3437812151162 277.7972229535655, 604.2856674373375 278.41552047639163, 602.3327362983856 269.293417035029 M676.4902795684719 270.7441077545051 C674.3587537437203 279.41018746756066, 603.7280725068582 277.43373431181476, 598.8351163069078 267.42226946339355 M599.3961283365683 268.1942306794214 C600.7394313238323 261.5735612524937, 602.6972730065877 249.58559115055186, 601.2592129981634 238.30689158449877 M601.3725921261736 269.55835339130914 C601.7188959817686 258.15472374372195, 599.8816904155225 247.72691139473702, 601.7209087941851 238.8723488266156" stroke="rgb(0, 0, 0)" stroke-width="1" fill="none"/></g><g><path d="M676.8146328621275 238.6229255580561 L672.249800518572 242.50065155637205 L664.6847022079162 243.6234513814535 L640.0103033962641 246.7257235609711 L614.9218391964507 246.4348386364766 L603.1555557507319 243.9847571731858 L602.0968897193301 237.24869510318035" stroke="none" stroke-width="0" fill="rgb(210, 222, 238)"/><path d="M677.7333167255545 240.2491672032973 M676 239 C673.9159441748833 250.00703356645423, 603.4572180846409 247.98172245604698, 600.4859281703755 237.19710051859806" stroke="rgb(0, 0, 0)" stroke-width="1" fill="none"/></g><g class="text-container" transform="matrix(1, 0, 0, 1, 416.5, 34)"><text font-family="'Arial'" font-size="12px" font-style="normal" font-weight="normal" text-decoration="none" text-anchor="middle" fill="rgb(0,0,0)" fill-opacity="1" transform="" style="font-style: normal;font-weight: 400;font-size: 12px;font-family: Comic Sans MS, cursive;"><tspan dy="0.9166666666666666em" x="0">Unbind DOS</tspan><tspan dy="1.5em" x="0">Extender stub</tspan></text></g><g class="text-container" transform="matrix(1, 0, 0, 1, 247.5, 34)"><text font-family="'Arial'" font-size="12px" font-style="normal" font-weight="normal" text-decoration="none" text-anchor="middle" fill="rgb(0,0,0)" fill-opacity="1" transform="" style="font-style: normal;font-weight: 400;font-size: 12px;font-family: Comic Sans MS, cursive;"><tspan dy="0.9166666666666666em" x="0">MS-DOS</tspan><tspan dy="1.5em" x="0">Executable</tspan></text></g><g class="text-container" transform="matrix(1, 0, 0, 1, 585.5, 25)"><text font-family="'Arial'" font-size="12px" font-style="normal" font-weight="normal" text-decoration="none" text-anchor="middle" fill="rgb(0,0,0)" fill-opacity="1" transform="" style="font-style: normal;font-weight: 400;font-size: 12px;font-family: Comic Sans MS, cursive;"><tspan dy="0.9166666666666666em" x="0">Disassemble</tspan><tspan dy="1.5em" x="0">mixed linear</tspan><tspan dy="1.5em" x="0">executable</tspan></text></g><g class="text-container" transform="matrix(1, 0, 0, 1, 78.5, 129)"><text font-family="'Arial'" font-size="12px" font-style="normal" font-weight="normal" text-decoration="none" text-anchor="middle" fill="rgb(0,0,0)" fill-opacity="1" transform="" style="font-style: normal;font-weight: 400;font-size: 12px;font-family: Comic Sans MS, cursive;"><tspan dy="0.9166666666666666em" x="0">Watcom C/C++</tspan><tspan dy="1.5em" x="0">Compiler</tspan></text></g><g class="text-container" transform="matrix(1, 0, 0, 1, 247.5, 129)"><text font-family="'Arial'" font-size="12px" font-style="normal" font-weight="normal" text-decoration="none" text-anchor="middle" fill="rgb(0,0,0)" fill-opacity="1" transform="" style="font-style: normal;font-weight: 400;font-size: 12px;font-family: Comic Sans MS, cursive;"><tspan dy="0.9166666666666666em" x="0">Identify targeted</tspan><tspan dy="1.5em" x="0">static link libraries</tspan></text></g><g class="text-container" transform="matrix(1, 0, 0, 1, 416.5, 129)"><text font-family="'Arial'" font-size="12px" font-style="normal" font-weight="normal" text-decoration="none" text-anchor="middle" fill="rgb(0,0,0)" fill-opacity="1" transform="" style="font-style: normal;font-weight: 400;font-size: 12px;font-family: Comic Sans MS, cursive;"><tspan dy="0.9166666666666666em" x="0">Explode libraries to</tspan><tspan dy="1.5em" x="0">object files</tspan></text></g><g class="text-container" transform="matrix(1, 0, 0, 1, 585.5, 129)"><text font-family="'Arial'" font-size="12px" font-style="normal" font-weight="normal" text-decoration="none" text-anchor="middle" fill="rgb(0,0,0)" fill-opacity="1" transform="" style="font-style: normal;font-weight: 400;font-size: 12px;font-family: Comic Sans MS, cursive;"><tspan dy="0.9166666666666666em" x="0">Disassemble</tspan><tspan dy="1.5em" x="0">object files</tspan></text></g><g class="text-container" transform="matrix(1, 0, 0, 1, 754.5, 34)"><text font-family="'Arial'" font-size="12px" font-style="normal" font-weight="normal" text-decoration="none" text-anchor="middle" fill="rgb(0,0,0)" fill-opacity="1" transform="" style="font-style: normal;font-weight: 400;font-size: 12px;font-family: Comic Sans MS, cursive;"><tspan dy="0.9166666666666666em" x="0">Application</tspan><tspan dy="1.5em" x="0">Assembly</tspan></text></g><g class="text-container" transform="matrix(1, 0, 0, 1, 923.5, 120)"><text font-family="'Arial'" font-size="12px" font-style="normal" font-weight="normal" text-decoration="none" text-anchor="middle" fill="rgb(0,0,0)" fill-opacity="1" transform="" style="font-style: normal;font-weight: 400;font-size: 12px;font-family: Comic Sans MS, cursive;"><tspan dy="0.9166666666666666em" x="0">Python Scripts</tspan><tspan dy="1.5em" x="0">Signature</tspan><tspan dy="1.5em" x="0"> Analysis</tspan></text></g><g class="text-container" transform="matrix(1, 0, 0, 1, 754.5, 120)"><text font-family="'Arial'" font-size="12px" font-style="normal" font-weight="normal" text-decoration="none" text-anchor="middle" fill="rgb(0,0,0)" fill-opacity="1" transform="" style="font-style: normal;font-weight: 400;font-size: 12px;font-family: Comic Sans MS, cursive;"><tspan dy="0.9166666666666666em" x="0">Library module</tspan><tspan dy="1.5em" x="0">disassembly</tspan><tspan dy="1.5em" x="0">listings</tspan></text></g><g class="text-container" transform="matrix(1, 0, 0, 1, 923.5, 238)"><text font-family="'Arial'" font-size="12px" font-style="normal" font-weight="normal" text-decoration="none" text-anchor="middle" fill="rgb(0,0,0)" fill-opacity="1" transform="" style="font-style: normal;font-weight: 400;font-size: 12px;font-family: Comic Sans MS, cursive;"><tspan dy="0.9166666666666666em" x="0">Signature</tspan><tspan dy="1.5em" x="0">matches</tspan></text></g><g class="text-container" transform="matrix(1, 0, 0, 1, 754.5, 238)"><text font-family="'Arial'" font-size="12px" font-style="normal" font-weight="normal" text-decoration="none" text-anchor="middle" fill="rgb(0,0,0)" fill-opacity="1" transform="" style="font-style: normal;font-weight: 400;font-size: 12px;font-family: Comic Sans MS, cursive;"><tspan dy="0.9166666666666666em" x="0">Reverse</tspan><tspan dy="1.5em" x="0">Engineering Tool</tspan></text></g><g class="text-container" transform="matrix(1, 0, 0, 1, 638.5, 247)"><text font-family="'Arial'" font-size="12px" font-style="normal" font-weight="normal" text-decoration="none" text-anchor="middle" fill="rgb(0,0,0)" fill-opacity="1" dy="0.9166666666666666em" transform="" style="font-style: normal;font-weight: 400;font-size: 12px;font-family: Comic Sans MS, cursive;">Database</text></g></svg>